<svg width="12" height="14" viewBox="0 0 12 14" fill="none" xmlns="http://www.w3.org/2000/svg">
<path d="M1.33329 7.00004C1.15648 7.00004 0.986912 7.07028 0.861888 7.1953C0.736864 7.32033 0.666626 7.4899 0.666626 7.66671V13C0.666626 13.1769 0.736864 13.3464 0.861888 13.4714C0.986912 13.5965 1.15648 13.6667 1.33329 13.6667C1.5101 13.6667 1.67967 13.5965 1.8047 13.4714C1.92972 13.3464 1.99996 13.1769 1.99996 13V7.66671C1.99996 7.4899 1.92972 7.32033 1.8047 7.1953C1.67967 7.07028 1.5101 7.00004 1.33329 7.00004ZM4.66663 0.333374C4.48981 0.333374 4.32025 0.403612 4.19522 0.528636C4.0702 0.65366 3.99996 0.82323 3.99996 1.00004V13C3.99996 13.1769 4.0702 13.3464 4.19522 13.4714C4.32025 13.5965 4.48981 13.6667 4.66663 13.6667C4.84344 13.6667 5.01301 13.5965 5.13803 13.4714C5.26305 13.3464 5.33329 13.1769 5.33329 13V1.00004C5.33329 0.82323 5.26305 0.65366 5.13803 0.528636C5.01301 0.403612 4.84344 0.333374 4.66663 0.333374ZM11.3333 9.66671C11.1565 9.66671 10.9869 9.73695 10.8619 9.86197C10.7369 9.98699 10.6666 10.1566 10.6666 10.3334V13C10.6666 13.1769 10.7369 13.3464 10.8619 13.4714C10.9869 13.5965 11.1565 13.6667 11.3333 13.6667C11.5101 13.6667 11.6797 13.5965 11.8047 13.4714C11.9297 13.3464 12 13.1769 12 13V10.3334C12 10.1566 11.9297 9.98699 11.8047 9.86197C11.6797 9.73695 11.5101 9.66671 11.3333 9.66671ZM7.99996 4.33337C7.82315 4.33337 7.65358 4.40361 7.52855 4.52864C7.40353 4.65366 7.33329 4.82323 7.33329 5.00004V13C7.33329 13.1769 7.40353 13.3464 7.52855 13.4714C7.65358 13.5965 7.82315 13.6667 7.99996 13.6667C8.17677 13.6667 8.34634 13.5965 8.47136 13.4714C8.59639 13.3464 8.66663 13.1769 8.66663 13V5.00004C8.66663 4.82323 8.59639 4.65366 8.47136 4.52864C8.34634 4.40361 8.17677 4.33337 7.99996 4.33337Z" fill="white"/>
</svg>
