<svg width="16" height="16" viewBox="0 0 16 16" fill="none" xmlns="http://www.w3.org/2000/svg">
<path d="M11.3332 6.1133C11.2083 5.98913 11.0393 5.91943 10.8632 5.91943C10.6871 5.91943 10.5181 5.98913 10.3932 6.1133L7.99988 8.47329L5.63988 6.1133C5.51498 5.98913 5.34601 5.91943 5.16988 5.91943C4.99376 5.91943 4.82479 5.98913 4.69988 6.1133C4.6374 6.17527 4.5878 6.249 4.55396 6.33024C4.52011 6.41148 4.50269 6.49862 4.50269 6.58663C4.50269 6.67464 4.52011 6.76177 4.55396 6.84301C4.5878 6.92425 4.6374 6.99799 4.69988 7.05996L7.52655 9.88663C7.58853 9.94911 7.66226 9.99871 7.7435 10.0326C7.82474 10.0664 7.91188 10.0838 7.99988 10.0838C8.08789 10.0838 8.17503 10.0664 8.25627 10.0326C8.33751 9.99871 8.41124 9.94911 8.47322 9.88663L11.3332 7.05996C11.3957 6.99799 11.4453 6.92425 11.4791 6.84301C11.513 6.76177 11.5304 6.67464 11.5304 6.58663C11.5304 6.49862 11.513 6.41148 11.4791 6.33024C11.4453 6.249 11.3957 6.17527 11.3332 6.1133Z" fill="white"/>
</svg>
