<svg width="32" height="32" viewBox="0 0 32 32" fill="none" xmlns="http://www.w3.org/2000/svg">
<rect x="31.5" y="31.5" width="31" height="31" rx="15.5" transform="rotate(-180 31.5 31.5)" fill="#E9ECEF"/>
<rect x="31.5" y="31.5" width="31" height="31" rx="15.5" transform="rotate(-180 31.5 31.5)" stroke="#CED4DA"/>
<path d="M13.6665 16.4668L17.3999 20.2668C17.6665 20.5335 18.0665 20.5335 18.3332 20.2668C18.5999 20.0001 18.5999 19.6001 18.3332 19.3335L15.0665 16.0668L18.3332 12.8001C18.4665 12.6668 18.5332 12.5335 18.5332 12.3335C18.5332 11.9335 18.2665 11.6668 17.8665 11.6668C17.6665 11.6668 17.5332 11.7335 17.3999 11.8668L13.5999 15.6668C13.3999 15.8001 13.3999 16.2001 13.6665 16.4668Z" fill="#6C757D"/>
</svg>
