<svg width="24" height="24" viewBox="0 0 24 24" fill="none" xmlns="http://www.w3.org/2000/svg">
<path d="M7.00005 14.83C7.18741 15.0162 7.44087 15.1208 7.70505 15.1208C7.96924 15.1208 8.22269 15.0162 8.41005 14.83L12.0001 11.29L15.5401 14.83C15.7274 15.0162 15.9809 15.1208 16.2451 15.1208C16.5092 15.1208 16.7627 15.0162 16.9501 14.83C17.0438 14.737 17.1182 14.6264 17.1689 14.5046C17.2197 14.3827 17.2458 14.252 17.2458 14.12C17.2458 13.988 17.2197 13.8573 17.1689 13.7354C17.1182 13.6136 17.0438 13.503 16.9501 13.41L12.7101 9.17C12.6171 9.07627 12.5065 9.00187 12.3846 8.9511C12.2628 8.90034 12.1321 8.8742 12.0001 8.8742C11.868 8.8742 11.7373 8.90034 11.6155 8.9511C11.4936 9.00187 11.383 9.07627 11.2901 9.17L7.00005 13.41C6.90632 13.503 6.83193 13.6136 6.78116 13.7354C6.73039 13.8573 6.70425 13.988 6.70425 14.12C6.70425 14.252 6.73039 14.3827 6.78116 14.5046C6.83193 14.6264 6.90632 14.737 7.00005 14.83Z" fill="#6C757D"/>
</svg>
