<svg width="17" height="17" viewBox="0 0 17 17" fill="none" xmlns="http://www.w3.org/2000/svg">
<g clip-path="url(#clip0_4009_5612)">
<rect width="16" height="16" transform="translate(0.5 0.5)" fill="white" fill-opacity="0.01"/>
<path d="M2.49967 5.83254H14.4997C14.6765 5.83254 14.8461 5.7623 14.9711 5.63728C15.0961 5.51225 15.1663 5.34268 15.1663 5.16587C15.1663 4.98906 15.0961 4.81949 14.9711 4.69447C14.8461 4.56944 14.6765 4.49921 14.4997 4.49921H2.49967C2.32286 4.49921 2.15329 4.56944 2.02827 4.69447C1.90325 4.81949 1.83301 4.98906 1.83301 5.16587C1.83301 5.34268 1.90325 5.51225 2.02827 5.63728C2.15329 5.7623 2.32286 5.83254 2.49967 5.83254ZM14.4997 11.1659H2.49967C2.32286 11.1659 2.15329 11.2361 2.02827 11.3611C1.90325 11.4862 1.83301 11.6557 1.83301 11.8325C1.83301 12.0094 1.90325 12.1789 2.02827 12.3039C2.15329 12.429 2.32286 12.4992 2.49967 12.4992H14.4997C14.6765 12.4992 14.8461 12.429 14.9711 12.3039C15.0961 12.1789 15.1663 12.0094 15.1663 11.8325C15.1663 11.6557 15.0961 11.4862 14.9711 11.3611C14.8461 11.2361 14.6765 11.1659 14.4997 11.1659ZM14.4997 7.83254H2.49967C2.32286 7.83254 2.15329 7.90278 2.02827 8.0278C1.90325 8.15283 1.83301 8.3224 1.83301 8.49921C1.83301 8.67602 1.90325 8.84559 2.02827 8.97061C2.15329 9.09564 2.32286 9.16587 2.49967 9.16587H14.4997C14.6765 9.16587 14.8461 9.09564 14.9711 8.97061C15.0961 8.84559 15.1663 8.67602 15.1663 8.49921C15.1663 8.3224 15.0961 8.15283 14.9711 8.0278C14.8461 7.90278 14.6765 7.83254 14.4997 7.83254Z" fill="white"/>
</g>
<defs>
<clipPath id="clip0_4009_5612">
<rect width="16" height="16" fill="white" transform="translate(0.5 0.5)"/>
</clipPath>
</defs>
</svg>
