<svg width="13" height="13" viewBox="0 0 13 13" fill="none" xmlns="http://www.w3.org/2000/svg">
<path d="M4.66634 10.6667C4.46856 10.6667 4.27522 10.7253 4.11077 10.8352C3.94632 10.9451 3.81815 11.1013 3.74246 11.284C3.66677 11.4667 3.64697 11.6678 3.68556 11.8618C3.72414 12.0557 3.81938 12.2339 3.95923 12.3738C4.09909 12.5136 4.27727 12.6089 4.47125 12.6475C4.66523 12.686 4.8663 12.6662 5.04902 12.5905C5.23175 12.5149 5.38793 12.3867 5.49781 12.2222C5.60769 12.0578 5.66634 11.8644 5.66634 11.6667C5.66634 11.4015 5.56098 11.1471 5.37345 10.9596C5.18591 10.772 4.93156 10.6667 4.66634 10.6667ZM11.6663 8.66667H3.66634C3.48953 8.66667 3.31996 8.59643 3.19494 8.47141C3.06991 8.34638 2.99967 8.17681 2.99967 8C2.99967 7.82319 3.06991 7.65362 3.19494 7.5286C3.31996 7.40357 3.48953 7.33333 3.66634 7.33333H9.32715C9.76143 7.33193 10.1836 7.18983 10.5303 6.92833C10.877 6.66682 11.1296 6.29999 11.2503 5.88281L12.3073 2.18327C12.3357 2.08405 12.3406 1.9796 12.3217 1.87815C12.3029 1.7767 12.2607 1.68101 12.1986 1.59862C12.1364 1.51623 12.056 1.44939 11.9637 1.40335C11.8713 1.35732 11.7695 1.33335 11.6663 1.33333H3.49239C3.35438 0.944906 3.09997 0.608473 2.76382 0.369876C2.42768 0.131279 2.02615 0.0021205 1.61393 0H0.999674C0.822863 0 0.653294 0.0702379 0.52827 0.195262C0.403246 0.320286 0.333008 0.489856 0.333008 0.666667C0.333008 0.843478 0.403246 1.01305 0.52827 1.13807C0.653294 1.2631 0.822863 1.33333 0.999674 1.33333H1.61393C1.75866 1.33384 1.89932 1.38121 2.01487 1.46835C2.13041 1.5555 2.21462 1.67772 2.25488 1.81673L2.35856 2.17989L2.35872 2.18327L3.45247 6.01139C2.94352 6.06614 2.47492 6.31396 2.14318 6.70382C1.81145 7.09367 1.64182 7.59589 1.66923 8.10705C1.69663 8.61821 1.91899 9.0994 2.29052 9.45155C2.66204 9.8037 3.15445 9.99999 3.66634 10H11.6663C11.8432 10 12.0127 9.92976 12.1377 9.80474C12.2628 9.67971 12.333 9.51014 12.333 9.33333C12.333 9.15652 12.2628 8.98695 12.1377 8.86193C12.0127 8.7369 11.8432 8.66667 11.6663 8.66667ZM10.7826 2.66667L9.96842 5.51627C9.9282 5.6554 9.84397 5.77774 9.72835 5.86495C9.61274 5.95216 9.47197 5.99955 9.32715 6H4.83593L4.66597 5.40519L3.88395 2.66667H10.7826ZM9.99967 10.6667C9.80189 10.6667 9.60855 10.7253 9.44411 10.8352C9.27966 10.9451 9.15148 11.1013 9.0758 11.284C9.00011 11.4667 8.9803 11.6678 9.01889 11.8618C9.05747 12.0557 9.15272 12.2339 9.29257 12.3738C9.43242 12.5136 9.6106 12.6089 9.80458 12.6475C9.99857 12.686 10.1996 12.6662 10.3824 12.5905C10.5651 12.5149 10.7213 12.3867 10.8311 12.2222C10.941 12.0578 10.9997 11.8644 10.9997 11.6667C10.9997 11.4015 10.8943 11.1471 10.7068 10.9596C10.5192 10.772 10.2649 10.6667 9.99967 10.6667Z" fill="white"/>
</svg>
