<svg width="25" height="24" viewBox="0 0 25 24" fill="none" xmlns="http://www.w3.org/2000/svg">
<path fill-rule="evenodd" clip-rule="evenodd" d="M2.5 6C2.5 5.44772 2.94772 5 3.5 5H10.5C11.0523 5 11.5 5.44772 11.5 6C11.5 6.55228 11.0523 7 10.5 7H3.5C2.94772 7 2.5 6.55228 2.5 6ZM2.5 12C2.5 11.4477 2.94772 11 3.5 11H9.5C10.0523 11 10.5 11.4477 10.5 12C10.5 12.5523 10.0523 13 9.5 13H3.5C2.94772 13 2.5 12.5523 2.5 12ZM18.6284 14.8722C18.2657 14.9558 17.888 15 17.5 15C14.7386 15 12.5 12.7614 12.5 10C12.5 7.23858 14.7386 5 17.5 5C20.2614 5 22.5 7.23858 22.5 10C22.5 11.6593 21.6917 13.1298 20.4475 14.0393L22.1307 17.4727C22.3738 17.9686 22.1689 18.5677 21.673 18.8108C21.1771 19.0539 20.578 18.849 20.3349 18.3531L18.6284 14.8722ZM2.5 18C2.5 17.4477 2.94772 17 3.5 17H13.5C14.0523 17 14.5 17.4477 14.5 18C14.5 18.5523 14.0523 19 13.5 19H3.5C2.94772 19 2.5 18.5523 2.5 18ZM20.2778 10C20.2778 11.5341 19.0341 12.7778 17.5 12.7778C15.9659 12.7778 14.7222 11.5341 14.7222 10C14.7222 8.46588 15.9659 7.22222 17.5 7.22222C19.0341 7.22222 20.2778 8.46588 20.2778 10Z" fill="#00929F"/>
</svg>
