<svg width="24" height="24" viewBox="0 0 24 24" fill="none" xmlns="http://www.w3.org/2000/svg">
<path fill-rule="evenodd" clip-rule="evenodd" d="M4.92927 17.6569C4.53875 18.0474 4.53875 18.6806 4.92927 19.0711C5.3198 19.4617 5.95296 19.4617 6.34349 19.0711L12.0002 13.4144L17.657 19.0712C18.0476 19.4617 18.6807 19.4617 19.0713 19.0712C19.4618 18.6807 19.4618 18.0475 19.0713 17.657L13.4145 12.0002L19.0714 6.34322C19.4619 5.95269 19.4619 5.31953 19.0714 4.929C18.6809 4.53848 18.0477 4.53848 17.6572 4.929L12.0002 10.586L6.34334 4.92905C5.95281 4.53852 5.31965 4.53852 4.92912 4.92905C4.5386 5.31957 4.5386 5.95274 4.92912 6.34326L10.586 12.0002L4.92927 17.6569Z" fill="#343A40"/>
</svg>
