<svg width="24" height="24" viewBox="0 0 24 24" fill="none" xmlns="http://www.w3.org/2000/svg">
<path fill-rule="evenodd" clip-rule="evenodd" d="M4.92927 17.6566C4.53875 18.0471 4.53875 18.6802 4.92927 19.0708C5.3198 19.4613 5.95296 19.4613 6.34349 19.0708L12.0002 13.414L17.657 19.0708C18.0476 19.4613 18.6807 19.4613 19.0713 19.0708C19.4618 18.6803 19.4618 18.0471 19.0713 17.6566L13.4145 11.9998L19.0714 6.34285C19.4619 5.95232 19.4619 5.31916 19.0714 4.92864C18.6809 4.53811 18.0477 4.53811 17.6572 4.92864L12.0002 10.5856L6.34334 4.92868C5.95281 4.53816 5.31965 4.53816 4.92912 4.92868C4.5386 5.31921 4.5386 5.95237 4.92912 6.34289L10.586 11.9998L4.92927 17.6566Z" fill="white"/>
</svg>
