<svg width="16" height="16" viewBox="0 0 16 16" fill="none" xmlns="http://www.w3.org/2000/svg">
<path fill-rule="evenodd" clip-rule="evenodd" d="M5.33325 6.66666C6.06963 6.66666 6.66659 6.0697 6.66659 5.33332C6.66659 4.59694 6.06963 3.99999 5.33325 3.99999C4.59687 3.99999 3.99992 4.59694 3.99992 5.33332C3.99992 6.0697 4.59687 6.66666 5.33325 6.66666ZM5.33325 7.99999C4.09069 7.99999 3.04663 7.15014 2.7506 5.99999H1.99992C1.63173 5.99999 1.33325 5.70151 1.33325 5.33332C1.33325 4.96513 1.63173 4.66666 1.99992 4.66666H2.7506C3.04663 3.51651 4.09069 2.66666 5.33325 2.66666C6.80601 2.66666 7.99992 3.86056 7.99992 5.33332C7.99992 6.80608 6.80601 7.99999 5.33325 7.99999ZM11.9999 10.6667C11.9999 9.93028 11.403 9.33332 10.6666 9.33332C9.93021 9.33332 9.33325 9.93028 9.33325 10.6667C9.33325 11.403 9.93021 12 10.6666 12C11.403 12 11.9999 11.403 11.9999 10.6667ZM8.08393 9.99999H1.99992C1.63173 9.99999 1.33325 10.2985 1.33325 10.6667C1.33325 11.0348 1.63173 11.3333 1.99992 11.3333H8.08393C8.37996 12.4835 9.42403 13.3333 10.6666 13.3333C11.9091 13.3333 12.9532 12.4835 13.2492 11.3333H13.9999C14.3681 11.3333 14.6666 11.0348 14.6666 10.6667C14.6666 10.2985 14.3681 9.99999 13.9999 9.99999H13.2492C12.9532 8.84984 11.9091 7.99999 10.6666 7.99999C9.42403 7.99999 8.37996 8.84984 8.08393 9.99999ZM9.33325 5.33332C9.33325 4.96513 9.63173 4.66666 9.99992 4.66666H13.9999C14.3681 4.66666 14.6666 4.96513 14.6666 5.33332C14.6666 5.70151 14.3681 5.99999 13.9999 5.99999H9.99992C9.63173 5.99999 9.33325 5.70151 9.33325 5.33332Z" fill="#00929F"/>
</svg>
