<svg width="16" height="17" viewBox="0 0 16 17" fill="none" xmlns="http://www.w3.org/2000/svg">
<path d="M5.6452 6.09636L5.6437 6.09758L5.64227 6.09896L5.6452 6.09636ZM12.2813 5.972C12.2349 5.9273 12.1834 5.88819 12.1279 5.85546C12.0494 5.80924 11.9622 5.77961 11.8718 5.76842C11.7813 5.75723 11.6895 5.76471 11.6021 5.7904C11.5147 5.81609 11.4334 5.85944 11.3634 5.91778C11.2934 5.97611 11.2361 6.04819 11.195 6.12956C10.9654 6.58202 10.6486 6.98468 10.263 7.31445C10.322 6.98218 10.3517 6.64539 10.3519 6.30793C10.3531 5.28134 10.0823 4.27274 9.56697 3.38484C9.05166 2.49695 8.31027 1.76146 7.41827 1.25327C7.32001 1.19757 7.20921 1.16774 7.09627 1.16659C6.98332 1.16544 6.87193 1.19301 6.77256 1.2467C6.67318 1.30039 6.58908 1.37844 6.52813 1.47354C6.46719 1.56864 6.4314 1.67766 6.42413 1.79038C6.38683 2.4225 6.22158 3.04046 5.93839 3.60683C5.65521 4.17319 5.25999 4.67617 4.77669 5.08529L4.62304 5.21029C4.11765 5.55035 3.6703 5.96956 3.29817 6.45182C2.71972 7.18056 2.319 8.03405 2.12781 8.94461C1.93662 9.85517 1.96021 10.7977 2.1967 11.6976C2.4332 12.5975 2.8761 13.4298 3.49029 14.1287C4.10447 14.8276 4.87304 15.3738 5.73505 15.724C5.83626 15.7653 5.94609 15.7811 6.05486 15.77C6.16363 15.7589 6.26799 15.7212 6.35874 15.6602C6.44948 15.5992 6.52382 15.5168 6.5752 15.4203C6.62658 15.3238 6.65342 15.2161 6.65335 15.1068C6.65288 15.0361 6.64168 14.9658 6.62015 14.8984C6.471 14.3378 6.42805 13.7542 6.49352 13.1777C7.12435 14.3675 8.13695 15.3107 9.36852 15.8555C9.51885 15.9227 9.68879 15.9318 9.84541 15.8809C10.8185 15.5668 11.695 15.0092 12.3918 14.2609C13.0887 13.5126 13.5826 12.5986 13.8267 11.6057C14.0707 10.6128 14.0569 9.57399 13.7864 8.58795C13.5159 7.60191 12.9978 6.7014 12.2813 5.972ZM9.67808 14.526C9.09696 14.2315 8.58433 13.818 8.17352 13.3124C7.76271 12.8067 7.46292 12.2203 7.29364 11.5911C7.24194 11.3793 7.20195 11.1648 7.17385 10.9486C7.15481 10.8109 7.09321 10.6826 6.99766 10.5816C6.90212 10.4806 6.77741 10.412 6.64097 10.3854C6.59894 10.3771 6.5562 10.373 6.51335 10.373C6.39618 10.373 6.28107 10.4039 6.17963 10.4625C6.07818 10.5211 5.994 10.6055 5.93555 10.707C5.3824 11.6611 5.10422 12.7497 5.13184 13.8522C4.64533 13.474 4.23874 13.0029 3.93563 12.4664C3.63251 11.9298 3.4389 11.3384 3.36602 10.7265C3.29314 10.1146 3.34244 9.49425 3.51106 8.90151C3.67967 8.30878 3.96426 7.7554 4.34831 7.27346C4.63992 6.89468 4.99171 6.56632 5.38965 6.30146C5.40688 6.29033 5.4234 6.27816 5.43913 6.26499C5.43913 6.26499 5.63692 6.10134 5.64368 6.0976C6.59348 5.29424 7.26902 4.2146 7.57617 3.00914C8.30255 3.68062 8.7869 4.57315 8.95401 5.54814C9.12112 6.52313 8.96164 7.52601 8.50033 8.40106C8.43938 8.51783 8.41438 8.65003 8.42848 8.78099C8.44257 8.91195 8.49514 9.0358 8.57954 9.13692C8.66395 9.23804 8.77641 9.3119 8.90274 9.34918C9.02907 9.38646 9.16361 9.38549 9.28939 9.3464C10.3106 9.02629 11.2092 8.40101 11.8643 7.55473C12.258 8.13626 12.5154 8.79914 12.6173 9.49397C12.7192 10.1888 12.663 10.8977 12.4528 11.5678C12.2427 12.2378 11.884 12.8519 11.4036 13.3641C10.9232 13.8763 10.3333 14.2735 9.67806 14.5261L9.67808 14.526Z" fill="white"/>
</svg>
