<svg width="16" height="17" viewBox="0 0 16 17" fill="none" xmlns="http://www.w3.org/2000/svg">
<path fill-rule="evenodd" clip-rule="evenodd" d="M4.66667 7.16666C5.40305 7.16666 6 6.5697 6 5.83332C6 5.09694 5.40305 4.49999 4.66667 4.49999C3.93029 4.49999 3.33333 5.09694 3.33333 5.83332C3.33333 6.5697 3.93029 7.16666 4.66667 7.16666ZM4.66667 8.49999C6.13943 8.49999 7.33333 7.30608 7.33333 5.83332C7.33333 4.36056 6.13943 3.16666 4.66667 3.16666C3.19391 3.16666 2 4.36056 2 5.83332C2 7.30608 3.19391 8.49999 4.66667 8.49999ZM11.3333 12.5C12.0697 12.5 12.6667 11.903 12.6667 11.1667C12.6667 10.4303 12.0697 9.83332 11.3333 9.83332C10.597 9.83332 10 10.4303 10 11.1667C10 11.903 10.597 12.5 11.3333 12.5ZM11.3333 13.8333C12.8061 13.8333 14 12.6394 14 11.1667C14 9.6939 12.8061 8.49999 11.3333 8.49999C9.86057 8.49999 8.66667 9.6939 8.66667 11.1667C8.66667 12.6394 9.86057 13.8333 11.3333 13.8333ZM11.3123 4.24315C11.0219 4.01681 10.603 4.06874 10.3766 4.35915L4.63908 11.7206C4.41274 12.011 4.46467 12.4299 4.75508 12.6563C5.04548 12.8826 5.46438 12.8307 5.69072 12.5403L11.4283 5.17879C11.6546 4.88839 11.6027 4.46949 11.3123 4.24315Z" fill="white"/>
</svg>
