<svg width="24" height="24" viewBox="0 0 24 24" fill="none" xmlns="http://www.w3.org/2000/svg">
<path fill-rule="evenodd" clip-rule="evenodd" d="M2 6C2 5.44772 2.44772 5 3 5H10C10.5523 5 11 5.44772 11 6C11 6.55228 10.5523 7 10 7H3C2.44772 7 2 6.55228 2 6ZM2 12C2 11.4477 2.44772 11 3 11H9C9.55228 11 10 11.4477 10 12C10 12.5523 9.55228 13 9 13H3C2.44772 13 2 12.5523 2 12ZM18.1284 14.8722C17.7657 14.9558 17.388 15 17 15C14.2386 15 12 12.7614 12 10C12 7.23858 14.2386 5 17 5C19.7614 5 22 7.23858 22 10C22 11.6593 21.1917 13.1298 19.9475 14.0393L21.6307 17.4727C21.8738 17.9686 21.6689 18.5677 21.173 18.8108C20.6771 19.0539 20.078 18.849 19.8349 18.3531L18.1284 14.8722ZM2 18C2 17.4477 2.44772 17 3 17H13C13.5523 17 14 17.4477 14 18C14 18.5523 13.5523 19 13 19H3C2.44772 19 2 18.5523 2 18ZM19.7778 10C19.7778 11.5341 18.5341 12.7778 17 12.7778C15.4659 12.7778 14.2222 11.5341 14.2222 10C14.2222 8.46588 15.4659 7.22222 17 7.22222C18.5341 7.22222 19.7778 8.46588 19.7778 10Z" fill="white"/>
</svg>
