<svg width="24" height="24" viewBox="0 0 24 24" fill="none" xmlns="http://www.w3.org/2000/svg">
<path d="M12 22C13.9778 22 15.9112 21.4135 17.5557 20.3147C19.2002 19.2159 20.4819 17.6541 21.2388 15.8268C21.9957 13.9996 22.1937 11.9889 21.8078 10.0491C21.422 8.10929 20.4696 6.32746 19.0711 4.92893C17.6725 3.53041 15.8907 2.578 13.9509 2.19215C12.0111 1.80629 10.0004 2.00433 8.17316 2.7612C6.3459 3.51808 4.78412 4.79981 3.6853 6.4443C2.58649 8.08879 2 10.0222 2 12C2.00295 14.6513 3.05746 17.1931 4.93218 19.0678C6.80691 20.9425 9.34874 21.9971 12 22ZM12 4C13.5822 4 15.129 4.46919 16.4446 5.34824C17.7602 6.22729 18.7855 7.47672 19.391 8.93853C19.9965 10.4003 20.155 12.0089 19.8463 13.5607C19.5376 15.1126 18.7757 16.538 17.6569 17.6569C16.538 18.7757 15.1126 19.5376 13.5607 19.8463C12.0089 20.155 10.4003 19.9965 8.93853 19.391C7.47672 18.7855 6.22729 17.7602 5.34824 16.4446C4.46919 15.129 4 13.5822 4 12C4.00242 9.87901 4.84606 7.84559 6.34582 6.34583C7.84559 4.84606 9.87901 4.00243 12 4ZM12 13.5C12.2652 13.5 12.5196 13.3946 12.7071 13.2071C12.8946 13.0196 13 12.7652 13 12.5L13 7.5C13 7.23478 12.8946 6.98043 12.7071 6.79289C12.5196 6.60536 12.2652 6.5 12 6.5C11.7348 6.5 11.4804 6.60536 11.2929 6.79289C11.1054 6.98043 11 7.23478 11 7.5L11 12.5C11 12.7652 11.1054 13.0196 11.2929 13.2071C11.4804 13.3946 11.7348 13.5 12 13.5ZM12 17.5C12.2472 17.5 12.4889 17.4267 12.6945 17.2893C12.9 17.152 13.0602 16.9568 13.1548 16.7284C13.2495 16.4999 13.2742 16.2486 13.226 16.0061C13.1777 15.7637 13.0587 15.5409 12.8839 15.3661C12.7091 15.1913 12.4863 15.0722 12.2439 15.024C12.0014 14.9758 11.75 15.0005 11.5216 15.0952C11.2932 15.1898 11.098 15.35 10.9607 15.5555C10.8233 15.7611 10.75 16.0028 10.75 16.25C10.75 16.5815 10.8817 16.8995 11.1161 17.1339C11.3505 17.3683 11.6685 17.5 12 17.5Z" fill="#FFAC05"/>
</svg>
