<svg width="24" height="24" viewBox="0 0 24 24" fill="none" xmlns="http://www.w3.org/2000/svg">
<path d="M20.16 4.99995C19.1 3.93716 17.9024 3.16429 16.1984 3.17112C14.3494 3.17854 13.2128 4.47542 12 5.35995C10.7277 4.41359 9.49951 3.09859 7.56795 3.15899C5.77558 3.21504 4.54047 4.09873 3.506 5.30054C2.47154 6.50235 1.93085 8.05147 1.99283 9.63597C2.05481 11.2205 2.71485 12.7226 3.84003 13.84L10.05 20.06C10.57 20.5717 11.2704 20.8586 12 20.8586C12.7296 20.8586 13.43 20.5717 13.95 20.06L20.16 13.84C21.3276 12.6652 21.983 11.0762 21.983 9.41995C21.983 7.76368 21.3276 6.17469 20.16 4.99995ZM18.75 12.46L12.54 18.67C12.4694 18.7413 12.3853 18.7979 12.2926 18.8366C12.1999 18.8753 12.1005 18.8952 12 18.8952C11.8996 18.8952 11.8002 18.8753 11.7075 18.8366C11.6148 18.7979 11.5307 18.7413 11.46 18.67L5.25003 12.43C4.46579 11.6283 4.02664 10.5514 4.02664 9.42995C4.02664 8.30849 4.46579 7.23161 5.25003 6.42995C6.04919 5.64094 6.98816 5.09116 8.25003 5.19852C9.7049 5.3223 10.4509 6.64094 11.25 7.42995C11.343 7.52368 11.4536 7.59808 11.5755 7.64884C11.6973 7.69961 11.828 7.72575 11.96 7.72575C12.092 7.72575 12.2227 7.69961 12.3446 7.64884C12.4665 7.59808 12.5771 7.52368 12.67 7.42995C13.4692 6.64094 14.2152 5.3223 15.67 5.19852C16.9319 5.09116 17.8709 5.64094 18.67 6.42995C19.4651 7.2211 19.9186 8.29214 19.9336 9.41364C19.9485 10.5351 19.5237 11.6179 18.75 12.43V12.46Z" fill="white"/>
</svg>
