<svg width="24" height="24" viewBox="0 0 24 24" fill="none" xmlns="http://www.w3.org/2000/svg">
<path d="M20.16 5.0002C19.1 3.9374 17.9024 3.16453 16.1984 3.17137C14.3494 3.17879 13.2128 4.47566 12 5.3602C10.7277 4.41383 9.49951 3.09884 7.56795 3.15923C5.77558 3.21528 4.54047 4.09898 3.506 5.30078C2.47154 6.50259 1.93085 8.05172 1.99283 9.63621C2.05481 11.2207 2.71485 12.7229 3.84003 13.8402L10.05 20.0602C10.57 20.572 11.2704 20.8588 12 20.8588C12.7296 20.8588 13.43 20.572 13.95 20.0602L20.16 13.8402C21.3276 12.6655 21.983 11.0765 21.983 9.4202C21.983 7.76392 21.3276 6.17493 20.16 5.0002ZM18.75 12.4602L12.54 18.6702C12.4694 18.7416 12.3853 18.7982 12.2926 18.8368C12.1999 18.8755 12.1005 18.8954 12 18.8954C11.8996 18.8954 11.8002 18.8755 11.7075 18.8368C11.6148 18.7982 11.5307 18.7416 11.46 18.6702L5.25003 12.4302C4.46579 11.6285 4.02664 10.5517 4.02664 9.4302C4.02664 8.30873 4.46579 7.23185 5.25003 6.4302C6.04919 5.64119 6.98816 5.09141 8.25003 5.19877C9.7049 5.32254 10.4509 6.64118 11.25 7.4302C11.343 7.52393 11.4536 7.59832 11.5755 7.64909C11.6973 7.69986 11.828 7.726 11.96 7.726C12.092 7.726 12.2227 7.69986 12.3446 7.64909C12.4665 7.59832 12.5771 7.52393 12.67 7.4302C13.4692 6.64118 14.2152 5.32254 15.67 5.19877C16.9319 5.09141 17.8709 5.64119 18.67 6.4302C19.4651 7.22135 19.9186 8.29239 19.9336 9.41388C19.9485 10.5354 19.5237 11.6181 18.75 12.4302V12.4602Z" fill="#6C757D"/>
</svg>
