<svg width="21" height="18" viewBox="0 0 21 18" fill="none" xmlns="http://www.w3.org/2000/svg">
<path d="M19.1603 2.0002C18.1002 0.937405 16.9026 0.164531 15.1986 0.171367C13.3496 0.178786 12.213 1.47566 11.0003 2.3602C9.72793 1.41383 8.49976 0.0988351 6.5682 0.159235C4.77582 0.215282 3.54072 1.09898 2.50625 2.30078C1.47178 3.50259 0.931098 5.05172 0.993077 6.63621C1.05506 8.22071 1.71509 9.72287 2.84028 10.8402L9.05028 17.0602C9.57029 17.572 10.2707 17.8588 11.0003 17.8588C11.7299 17.8588 12.4303 17.572 12.9503 17.0602L19.1603 10.8402C20.3279 9.66546 20.9832 8.07647 20.9832 6.4202C20.9832 4.76392 20.3279 3.17493 19.1603 2.0002ZM17.7503 9.4602L11.5403 15.6702C11.4696 15.7416 11.3855 15.7982 11.2928 15.8368C11.2001 15.8755 11.1007 15.8954 11.0003 15.8954C10.8999 15.8954 10.8004 15.8755 10.7077 15.8368C10.615 15.7982 10.5309 15.7416 10.4603 15.6702L4.25028 9.4302C3.46603 8.62854 3.02689 7.55166 3.02689 6.4302C3.02689 5.30873 3.46603 4.23185 4.25028 3.4302C5.04943 2.64119 5.9884 2.09141 7.25028 2.19877C8.70515 2.32254 9.45112 3.64118 10.2503 4.4302C10.3432 4.52393 10.4538 4.59832 10.5757 4.64909C10.6976 4.69986 10.8283 4.726 10.9603 4.726C11.0923 4.726 11.223 4.69986 11.3449 4.64909C11.4667 4.59832 11.5773 4.52393 11.6703 4.4302C12.4694 3.64118 13.2154 2.32254 14.6703 2.19877C15.9321 2.09141 16.8711 2.64119 17.6703 3.4302C18.4653 4.22135 18.9189 5.29239 18.9338 6.41388C18.9488 7.53538 18.5239 8.61813 17.7503 9.4302V9.4602Z" fill="#00BDAD"/>
</svg>
