<svg width="14" height="12" viewBox="0 0 14 12" fill="none" xmlns="http://www.w3.org/2000/svg">
<path d="M12.4399 1.33253C11.7332 0.624001 10.9348 0.108751 9.79875 0.113309C8.56609 0.118254 7.80837 0.98284 6.99986 1.57253C6.15163 0.941621 5.33285 0.0649542 4.04514 0.105221C2.85022 0.142585 2.02682 0.731714 1.33717 1.53292C0.647529 2.33412 0.287073 3.36688 0.328392 4.4232C0.369711 5.47953 0.809737 6.48098 1.55986 7.22586L5.69986 11.3725C6.04654 11.7137 6.51345 11.9049 6.99986 11.9049C7.48627 11.9049 7.95318 11.7137 8.29986 11.3725L12.4399 7.22586C13.2182 6.44271 13.6551 5.38338 13.6551 4.2792C13.6551 3.17501 13.2182 2.11568 12.4399 1.33253ZM11.4999 6.30586L7.35986 10.4459C7.31275 10.4934 7.25668 10.5312 7.19489 10.557C7.13309 10.5827 7.06681 10.596 6.99986 10.596C6.93291 10.596 6.86662 10.5827 6.80483 10.557C6.74304 10.5312 6.68697 10.4934 6.63986 10.4459L2.49986 6.28586C1.97703 5.75143 1.68427 5.03351 1.68427 4.28586C1.68427 3.53822 1.97703 2.8203 2.49986 2.28586C3.03263 1.75985 3.65861 1.39334 4.49986 1.46491C5.46977 1.54743 5.96709 2.42652 6.49986 2.95253C6.56183 3.01501 6.63557 3.06461 6.71681 3.09846C6.79805 3.1323 6.88518 3.14973 6.97319 3.14973C7.0612 3.14973 7.14834 3.1323 7.22958 3.09846C7.31082 3.06461 7.38455 3.01501 7.44653 2.95253C7.9793 2.42652 8.47661 1.54743 9.44653 1.46491C10.2878 1.39334 10.9138 1.75985 11.4465 2.28586C11.9765 2.8133 12.2789 3.52732 12.2889 4.27499C12.2989 5.02265 12.0156 5.74449 11.4999 6.28586V6.30586Z" fill="#00929F"/>
</svg>
