<svg width="16" height="17" viewBox="0 0 16 17" fill="none" xmlns="http://www.w3.org/2000/svg">
<path d="M8.23156 1.90119C7.96295 2.02559 7.80745 2.20372 7.72545 2.48363C7.69153 2.59672 7.68022 2.76071 7.68022 3.11979V3.60327L7.44272 4.08675C6.99599 4.99434 6.08275 6.61726 5.87917 6.86607C5.80849 6.95089 5.65864 7.12053 5.54272 7.24211L5.33349 7.45982L5.21191 7.43155C5.14688 7.41741 4.61533 7.40327 4.01876 7.40327C2.81147 7.40327 2.72099 7.41458 2.45522 7.58988C2.29405 7.69732 2.15834 7.86696 2.06786 8.07619C2.01414 8.20625 2.01132 8.27976 2.00283 10.8527C1.99435 13.6518 1.99718 13.7083 2.12441 13.9656C2.21772 14.1437 2.46935 14.3699 2.66161 14.4406C2.81147 14.4972 2.87367 14.5 4.00462 14.5C5.30522 14.5 5.33066 14.4972 5.57947 14.3247L5.70105 14.2427L6.44182 14.2993C8.07605 14.4265 8.72352 14.4519 10.0552 14.4548C11.5057 14.4576 11.729 14.4406 12.1616 14.2993C12.7045 14.1183 13.0551 13.8073 13.3067 13.2786C13.4311 13.0156 13.499 12.7838 13.5272 12.4982C13.547 12.3257 13.564 12.2918 13.6941 12.125C13.8665 11.9045 13.9853 11.6726 14.0729 11.3899C14.1266 11.2174 14.1408 11.1156 14.138 10.8385C14.138 10.6519 14.1238 10.4512 14.1069 10.3918C14.0786 10.2985 14.0842 10.2702 14.1549 10.1232C14.2652 9.89702 14.3048 9.69911 14.3019 9.38527C14.2991 9.07991 14.2341 8.78586 14.1069 8.50312C14.0305 8.33348 14.0249 8.31369 14.0588 8.18928C14.2963 7.2619 13.8072 6.51547 12.7949 6.26101C12.1333 6.09419 11.3106 6.08854 10.3549 6.24687C10.1683 6.27515 10.0128 6.29777 10.0072 6.28928C10.0015 6.28363 10.1061 5.68422 10.239 4.95476C10.3719 4.2253 10.4793 3.57783 10.4793 3.51562C10.4793 3.32902 10.3719 2.94166 10.2616 2.72678C10.1938 2.59955 10.0835 2.45253 9.95626 2.3253C9.62545 1.99166 9.20417 1.83333 8.65001 1.83333C8.41816 1.83333 8.35031 1.84464 8.23156 1.90119ZM9.05998 3.08303C9.16742 3.14806 9.27769 3.3064 9.30313 3.4308C9.31444 3.48452 9.22679 4.03586 9.06281 4.91518C8.78007 6.44762 8.77441 6.52113 8.89599 6.84628C9.02888 7.20253 9.30879 7.42872 9.69331 7.49375C9.86578 7.52485 9.91385 7.5192 10.3012 7.4372C10.8073 7.32976 11.1551 7.29018 11.6216 7.29018C12.2182 7.29018 12.6621 7.38065 12.8543 7.54181C12.942 7.6125 12.9533 7.63795 12.9505 7.74539C12.9505 7.81324 12.9137 7.97158 12.8685 8.09598C12.7723 8.38155 12.7836 8.48333 12.9505 8.79434C13.1031 9.07425 13.1795 9.3683 13.1399 9.50967C13.1258 9.56339 13.0692 9.66235 13.0155 9.72738C12.8147 9.97902 12.7921 10.1091 12.8996 10.4173C13.0636 10.8753 12.9759 11.2598 12.6451 11.5397C12.4359 11.7207 12.3991 11.8083 12.3878 12.1759C12.3737 12.6424 12.2323 12.9449 11.9467 13.1202C11.7205 13.2616 11.5141 13.2899 10.55 13.304C9.47843 13.3238 8.20894 13.2701 6.45879 13.14L6.01206 13.1061V10.8272V8.54836L6.13929 8.35893C6.20715 8.25431 6.37962 8.04792 6.51816 7.90089C6.81504 7.58422 6.95641 7.39196 7.2137 6.95089C7.93751 5.7125 8.71221 4.20833 8.79138 3.88884C8.82531 3.76443 8.83944 3.58348 8.83944 3.34598V2.98973L8.90447 3.00669C8.9384 3.018 9.00909 3.05193 9.05998 3.08303ZM4.85283 10.9658V13.369H4.00462H3.15641V10.9658V8.5625H4.00462H4.85283V10.9658Z" fill="white"/>
</svg>
