<svg width="10" height="12" viewBox="0 0 10 12" fill="none" xmlns="http://www.w3.org/2000/svg">
<path d="M9.22994 4.81503C9.15974 4.08449 8.90156 3.38457 8.48053 2.78344C8.05951 2.18231 7.48999 1.70045 6.82744 1.38478C6.16489 1.06911 5.43188 0.930393 4.6998 0.982134C3.96772 1.03388 3.26151 1.27431 2.64994 1.68003C2.12454 2.03135 1.68347 2.49468 1.35841 3.03673C1.03336 3.57877 0.832388 4.18608 0.769941 4.81503C0.708682 5.43986 0.787277 6.07049 1.00003 6.66117C1.21277 7.25185 1.55434 7.78776 1.99994 8.23003L4.64994 10.885C4.69642 10.9319 4.75172 10.9691 4.81265 10.9945C4.87358 11.0199 4.93893 11.0329 5.00494 11.0329C5.07095 11.0329 5.1363 11.0199 5.19723 10.9945C5.25816 10.9691 5.31346 10.9319 5.35994 10.885L7.99994 8.23003C8.44554 7.78776 8.78711 7.25185 8.99986 6.66117C9.2126 6.07049 9.2912 5.43986 9.22994 4.81503ZM7.29994 7.52503L4.99994 9.82503L2.69994 7.52503C2.36099 7.18606 2.10134 6.7762 1.93967 6.32491C1.77801 5.87363 1.71833 5.39213 1.76494 4.91503C1.81185 4.43058 1.96582 3.96261 2.21573 3.54495C2.46563 3.12729 2.80522 2.77039 3.20994 2.50003C3.74041 2.14765 4.36309 1.95968 4.99994 1.95968C5.63679 1.95968 6.25947 2.14765 6.78994 2.50003C7.19344 2.76934 7.53228 3.12467 7.78212 3.5405C8.03196 3.95633 8.1866 4.42233 8.23494 4.90503C8.28307 5.38375 8.22414 5.86717 8.06243 6.32031C7.90072 6.77344 7.64027 7.18495 7.29994 7.52503ZM4.99994 3.00003C4.55493 3.00003 4.11992 3.13199 3.74991 3.37923C3.3799 3.62646 3.09151 3.97786 2.92121 4.38899C2.75091 4.80013 2.70636 5.25253 2.79317 5.68899C2.87999 6.12544 3.09428 6.52635 3.40895 6.84102C3.72362 7.15569 4.12453 7.36998 4.56099 7.4568C4.99744 7.54362 5.44984 7.49906 5.86098 7.32876C6.27211 7.15846 6.62351 6.87008 6.87075 6.50007C7.11798 6.13005 7.24994 5.69504 7.24994 5.25003C7.24862 4.6537 7.01114 4.08217 6.58947 3.6605C6.1678 3.23883 5.59627 3.00135 4.99994 3.00003ZM4.99994 6.50003C4.75271 6.50003 4.51104 6.42672 4.30548 6.28937C4.09992 6.15202 3.9397 5.95679 3.84509 5.72839C3.75048 5.49998 3.72573 5.24865 3.77396 5.00617C3.82219 4.76369 3.94124 4.54096 4.11606 4.36615C4.29087 4.19133 4.5136 4.07228 4.75608 4.02405C4.99855 3.97582 5.24989 4.00057 5.47829 4.09518C5.7067 4.18979 5.90193 4.35001 6.03928 4.55557C6.17663 4.76113 6.24994 5.00281 6.24994 5.25003C6.24994 5.58155 6.11824 5.8995 5.88382 6.13392C5.6494 6.36834 5.33146 6.50003 4.99994 6.50003Z" fill="white"/>
</svg>
