<svg width="56" height="56" viewBox="0 0 56 56" fill="none" xmlns="http://www.w3.org/2000/svg">
<rect width="56" height="56" rx="28" fill="#E9ECEF"/>
<path d="M36.4604 25.6303C36.32 24.1692 35.8036 22.7694 34.9616 21.5671C34.1195 20.3649 32.9805 19.4011 31.6554 18.7698C30.3303 18.1385 28.8642 17.861 27.4001 17.9645C25.9359 18.068 24.5235 18.5489 23.3004 19.3603C22.2496 20.063 21.3674 20.9896 20.7173 22.0737C20.0672 23.1578 19.6653 24.3724 19.5404 25.6303C19.4179 26.88 19.575 28.1412 20.0005 29.3226C20.426 30.5039 21.1092 31.5758 22.0004 32.4603L27.3004 37.7703C27.3933 37.864 27.5039 37.9384 27.6258 37.9892C27.7477 38.04 27.8784 38.0661 28.0104 38.0661C28.1424 38.0661 28.2731 38.04 28.3949 37.9892C28.5168 37.9384 28.6274 37.864 28.7204 37.7703L34.0004 32.4603C34.8916 31.5758 35.5747 30.5039 36.0002 29.3226C36.4257 28.1412 36.5829 26.88 36.4604 25.6303ZM32.6004 31.0503L28.0004 35.6503L23.4004 31.0503C22.7225 30.3724 22.2032 29.5526 21.8798 28.6501C21.5565 27.7475 21.4372 26.7845 21.5304 25.8303C21.6242 24.8614 21.9321 23.9255 22.4319 23.0902C22.9317 22.2548 23.6109 21.541 24.4204 21.0003C25.4813 20.2955 26.7267 19.9196 28.0004 19.9196C29.2741 19.9196 30.5194 20.2955 31.5804 21.0003C32.3874 21.5389 33.065 22.2496 33.5647 23.0812C34.0644 23.9129 34.3737 24.8449 34.4704 25.8103C34.5666 26.7677 34.4488 27.7346 34.1254 28.6409C33.8019 29.5471 33.281 30.3701 32.6004 31.0503ZM28.0004 22.0003C27.1104 22.0003 26.2403 22.2642 25.5003 22.7587C24.7603 23.2532 24.1835 23.956 23.8429 24.7782C23.5023 25.6005 23.4132 26.5053 23.5868 27.3782C23.7605 28.2511 24.1891 29.053 24.8184 29.6823C25.4477 30.3116 26.2495 30.7402 27.1225 30.9138C27.9954 31.0875 28.9002 30.9984 29.7224 30.6578C30.5447 30.3172 31.2475 29.7404 31.742 29.0004C32.2364 28.2604 32.5004 27.3903 32.5004 26.5003C32.4977 25.3076 32.0228 24.1646 31.1794 23.3212C30.3361 22.4779 29.193 22.003 28.0004 22.0003ZM28.0004 29.0003C27.5059 29.0003 27.0226 28.8537 26.6114 28.579C26.2003 28.3043 25.8799 27.9138 25.6907 27.457C25.5015 27.0002 25.4519 26.4975 25.5484 26.0126C25.6449 25.5276 25.883 25.0822 26.2326 24.7325C26.5822 24.3829 27.0277 24.1448 27.5126 24.0483C27.9976 23.9519 28.5003 24.0014 28.9571 24.1906C29.4139 24.3798 29.8043 24.7003 30.079 25.1114C30.3537 25.5225 30.5004 26.0059 30.5004 26.5003C30.5004 27.1634 30.237 27.7992 29.7681 28.2681C29.2993 28.7369 28.6634 29.0003 28.0004 29.0003Z" fill="#343A40"/>
</svg>
