<svg width="24" height="24" viewBox="0 0 24 24" fill="none" xmlns="http://www.w3.org/2000/svg">
<path fill-rule="evenodd" clip-rule="evenodd" d="M17 21C18.6569 21 20 19.6569 20 18L20 6C20 4.34315 18.6569 3 17 3H10C8.34315 3 7 4.34315 7 6L7 7.2C7 7.75229 7.44771 8.2 8 8.2C8.55229 8.2 9 7.75229 9 7.2L9 6C9 5.44772 9.44772 5 10 5L17 5C17.5523 5 18 5.44772 18 6L18 18C18 18.5523 17.5523 19 17 19L10 19C9.44771 19 9 18.5523 9 18L9 16.8C9 16.2477 8.55228 15.8 8 15.8C7.44771 15.8 7 16.2477 7 16.8V18C7 19.6569 8.34315 21 10 21H17ZM12.7071 14.7071L14.7071 12.7071C15.0976 12.3166 15.0976 11.6834 14.7071 11.2929L12.7071 9.29289C12.3166 8.90237 11.6834 8.90237 11.2929 9.29289C10.9024 9.68342 10.9024 10.3166 11.2929 10.7071L11.5858 11H4C3.44772 11 3 11.4477 3 12C3 12.5523 3.44772 13 4 13H11.5858L11.2929 13.2929C10.9024 13.6834 10.9024 14.3166 11.2929 14.7071C11.6834 15.0976 12.3166 15.0976 12.7071 14.7071Z" fill="#6C757D"/>
</svg>
