<svg width="16" height="16" viewBox="0 0 16 16" fill="none" xmlns="http://www.w3.org/2000/svg">
<rect x="1.33398" y="1.33337" width="13.3333" height="13.3333" rx="6.66667" fill="#00BDAD"/>
<path fill-rule="evenodd" clip-rule="evenodd" d="M11.7814 6.42761C12.0176 6.14512 11.98 5.72468 11.6975 5.48855C11.415 5.25242 10.9945 5.29 10.7584 5.5725L7.5554 9.40441L5.27088 7.11989C5.01053 6.85954 4.58842 6.85954 4.32807 7.11989C4.06773 7.38024 4.06773 7.80235 4.32807 8.0627L7.0847 10.8193C7.11009 10.8498 7.13857 10.8785 7.17011 10.9048C7.21081 10.9389 7.25437 10.9672 7.29983 10.9899C7.5507 11.1194 7.86654 11.0789 8.07683 10.8687C8.11712 10.8284 8.15117 10.7842 8.17899 10.7374L11.7814 6.42761Z" fill="white"/>
</svg>
