<svg width="56" height="56" viewBox="0 0 56 56" fill="none" xmlns="http://www.w3.org/2000/svg">
<rect width="56" height="56" rx="28" fill="#E9ECEF"/>
<path d="M35 20.5H21C20.2044 20.5 19.4413 20.8161 18.8787 21.3787C18.3161 21.9413 18 22.7044 18 23.5V32.5C18 33.2956 18.3161 34.0587 18.8787 34.6213C19.4413 35.1839 20.2044 35.5 21 35.5H35C35.7956 35.5 36.5587 35.1839 37.1213 34.6213C37.6839 34.0587 38 33.2956 38 32.5V23.5C38 22.7044 37.6839 21.9413 37.1213 21.3787C36.5587 20.8161 35.7956 20.5 35 20.5ZM36 32.5C36 32.7652 35.8946 33.0196 35.7071 33.2071C35.5196 33.3946 35.2652 33.5 35 33.5H21C20.7348 33.5 20.4804 33.3946 20.2929 33.2071C20.1054 33.0196 20 32.7652 20 32.5V23.5C20 23.2348 20.1054 22.9804 20.2929 22.7929C20.4804 22.6054 20.7348 22.5 21 22.5H35C35.2652 22.5 35.5196 22.6054 35.7071 22.7929C35.8946 22.9804 36 23.2348 36 23.5V32.5ZM32 26.5C31.4683 26.5037 30.9472 26.6487 30.49 26.92C30.0345 26.6497 29.5156 26.5049 28.986 26.5001C28.4563 26.4954 27.9349 26.6309 27.4746 26.893C27.0144 27.1551 26.6317 27.5344 26.3655 27.9923C26.0993 28.4502 25.9591 28.9704 25.9591 29.5C25.9591 30.0296 26.0993 30.5498 26.3655 31.0077C26.6317 31.4656 27.0144 31.8449 27.4746 32.107C27.9349 32.3691 28.4563 32.5046 28.986 32.4999C29.5156 32.4951 30.0345 32.3503 30.49 32.08C30.8878 32.316 31.3348 32.4568 31.796 32.4915C32.2573 32.5261 32.7203 32.4537 33.1489 32.2797C33.5775 32.1058 33.96 31.8351 34.2667 31.4888C34.5734 31.1426 34.7958 30.7301 34.9166 30.2836C35.0374 29.8371 35.0534 29.3687 34.9632 28.915C34.873 28.4614 34.6792 28.0347 34.3968 27.6684C34.1144 27.302 33.7511 27.006 33.3353 26.8033C32.9195 26.6006 32.4625 26.4968 32 26.5ZM29.17 30.5C29.1134 30.5048 29.0566 30.5048 29 30.5C28.7348 30.5 28.4804 30.3946 28.2929 30.2071C28.1054 30.0196 28 29.7652 28 29.5C28 29.2348 28.1054 28.9804 28.2929 28.7929C28.4804 28.6054 28.7348 28.5 29 28.5C29.0566 28.4952 29.1134 28.4952 29.17 28.5C28.9437 29.12 28.9437 29.8 29.17 30.42V30.5ZM32 30.5C31.8022 30.5 31.6089 30.4414 31.4444 30.3315C31.28 30.2216 31.1518 30.0654 31.0761 29.8827C31.0004 29.7 30.9806 29.4989 31.0192 29.3049C31.0578 29.1109 31.153 28.9327 31.2929 28.7929C31.4327 28.653 31.6109 28.5578 31.8049 28.5192C31.9989 28.4806 32.2 28.5004 32.3827 28.5761C32.5654 28.6518 32.7216 28.78 32.8315 28.9444C32.9414 29.1089 33 29.3022 33 29.5C33 29.7652 32.8946 30.0196 32.7071 30.2071C32.5196 30.3946 32.2652 30.5 32 30.5Z" fill="#343A40"/>
</svg>
