<svg width="15" height="15" viewBox="0 0 15 15" fill="none" xmlns="http://www.w3.org/2000/svg">
<path d="M12.4601 8.16668C12.3134 8.16668 12.1601 8.12001 12.0134 8.08668C11.7164 8.02123 11.4245 7.93434 11.1401 7.82668C10.8308 7.71417 10.4908 7.72001 10.1856 7.84309C9.88038 7.96616 9.63146 8.19777 9.48673 8.49335L9.34007 8.79335C8.69074 8.43213 8.09406 7.9835 7.56673 7.46001C7.04325 6.93269 6.59462 6.33601 6.2334 5.68668L6.5134 5.50001C6.80898 5.35529 7.04059 5.10637 7.16366 4.80114C7.28674 4.49592 7.29258 4.15596 7.18007 3.84668C7.07422 3.56163 6.98736 3.26988 6.92007 2.97335C6.88673 2.82668 6.86007 2.67335 6.84007 2.52001C6.75911 2.05043 6.51315 1.62518 6.14648 1.32084C5.77981 1.0165 5.31653 0.853086 4.84007 0.860014H2.84007C2.55275 0.857316 2.26823 0.916556 2.00587 1.0337C1.74351 1.15085 1.50947 1.32314 1.31969 1.53887C1.1299 1.75459 0.988824 2.00868 0.906059 2.28382C0.823295 2.55897 0.800787 2.84872 0.840067 3.13335C1.19523 5.92627 2.47075 8.52127 4.46517 10.5084C6.45958 12.4956 9.05921 13.7617 11.8534 14.1067H12.1067C12.5983 14.1074 13.073 13.927 13.4401 13.6C13.651 13.4114 13.8195 13.1801 13.9344 12.9216C14.0493 12.663 14.108 12.383 14.1067 12.1V10.1C14.0986 9.63694 13.9299 9.19105 13.6296 8.83846C13.3293 8.48587 12.9159 8.24843 12.4601 8.16668ZM12.7934 12.1667C12.7933 12.2613 12.773 12.3549 12.7339 12.4411C12.6948 12.5273 12.6378 12.6042 12.5667 12.6667C12.4922 12.731 12.4051 12.779 12.311 12.8077C12.2169 12.8364 12.1178 12.8452 12.0201 12.8333C9.52333 12.5132 7.20423 11.371 5.42854 9.58687C3.65286 7.80274 2.52167 5.47824 2.2134 2.98001C2.20279 2.88236 2.21209 2.78357 2.24074 2.68961C2.26938 2.59565 2.31678 2.50847 2.38007 2.43335C2.44254 2.36223 2.51944 2.30524 2.60565 2.26616C2.69186 2.22708 2.78541 2.2068 2.88007 2.20668H4.88007C5.0351 2.20323 5.18648 2.25393 5.30816 2.35006C5.42984 2.44619 5.51421 2.58173 5.54673 2.73335C5.5734 2.91557 5.60673 3.09557 5.64673 3.27335C5.72375 3.62478 5.82624 3.97013 5.9534 4.30668L5.02007 4.74001C4.94027 4.77663 4.86848 4.82864 4.80884 4.89308C4.7492 4.95751 4.70287 5.03309 4.67251 5.11548C4.64216 5.19786 4.62838 5.28543 4.63197 5.37316C4.63555 5.46089 4.65643 5.54704 4.6934 5.62668C5.65287 7.68185 7.3049 9.33388 9.36007 10.2933C9.52238 10.36 9.70443 10.36 9.86673 10.2933C9.94988 10.2636 10.0263 10.2176 10.0915 10.1581C10.1567 10.0986 10.2095 10.0268 10.2467 9.94668L10.6601 9.01335C11.0047 9.1366 11.3565 9.23901 11.7134 9.32001C11.8912 9.36001 12.0712 9.39335 12.2534 9.42001C12.405 9.45254 12.5406 9.5369 12.6367 9.65858C12.7328 9.78026 12.7835 9.93165 12.7801 10.0867L12.7934 12.1667Z" fill="white"/>
</svg>
