<svg width="16" height="16" viewBox="0 0 16 16" fill="none" xmlns="http://www.w3.org/2000/svg">
<path d="M12.667 7.33335H8.66699V3.33335C8.66699 3.15654 8.59675 2.98697 8.47173 2.86195C8.34671 2.73693 8.17714 2.66669 8.00033 2.66669C7.82351 2.66669 7.65394 2.73693 7.52892 2.86195C7.4039 2.98697 7.33366 3.15654 7.33366 3.33335V7.33335H3.33366C3.15685 7.33335 2.98728 7.40359 2.86225 7.52862C2.73723 7.65364 2.66699 7.82321 2.66699 8.00002C2.66699 8.17683 2.73723 8.3464 2.86225 8.47142C2.98728 8.59645 3.15685 8.66669 3.33366 8.66669H7.33366V12.6667C7.33366 12.8435 7.4039 13.0131 7.52892 13.1381C7.65394 13.2631 7.82351 13.3334 8.00033 13.3334C8.17714 13.3334 8.34671 13.2631 8.47173 13.1381C8.59675 13.0131 8.66699 12.8435 8.66699 12.6667V8.66669H12.667C12.8438 8.66669 13.0134 8.59645 13.1384 8.47142C13.2634 8.3464 13.3337 8.17683 13.3337 8.00002C13.3337 7.82321 13.2634 7.65364 13.1384 7.52862C13.0134 7.40359 12.8438 7.33335 12.667 7.33335Z" fill="#00BDAD"/>
</svg>
