<svg width="16" height="16" viewBox="0 0 16 16" fill="none" xmlns="http://www.w3.org/2000/svg">
<path d="M7.52659 10.1933C7.49792 10.225 7.4712 10.2584 7.44659 10.2933C7.42136 10.3305 7.40118 10.3709 7.38659 10.4133C7.36737 10.4511 7.35389 10.4916 7.34659 10.5333C7.34332 10.5777 7.34332 10.6223 7.34659 10.6667C7.34434 10.7541 7.3626 10.8409 7.39992 10.92C7.42986 11.0027 7.47763 11.0779 7.53985 11.1401C7.60206 11.2023 7.67719 11.2501 7.75992 11.28C7.83972 11.3153 7.92601 11.3335 8.01326 11.3335C8.1005 11.3335 8.18679 11.3153 8.26659 11.28C8.34932 11.2501 8.42445 11.2023 8.48667 11.1401C8.54888 11.0779 8.59665 11.0027 8.62659 10.92C8.65619 10.8389 8.66978 10.7529 8.66659 10.6667C8.6671 10.5789 8.65028 10.492 8.6171 10.4107C8.58393 10.3295 8.53504 10.2556 8.47326 10.1933C8.41128 10.1308 8.33755 10.0813 8.25631 10.0474C8.17507 10.0136 8.08793 9.99614 7.99992 9.99614C7.91191 9.99614 7.82478 10.0136 7.74354 10.0474C7.6623 10.0813 7.58856 10.1308 7.52659 10.1933ZM7.99992 1.33333C6.68138 1.33333 5.39245 1.72433 4.29612 2.45687C3.19979 3.18941 2.34531 4.2306 1.84072 5.44878C1.33614 6.66695 1.20412 8.0074 1.46135 9.3006C1.71859 10.5938 2.35353 11.7817 3.28588 12.714C4.21823 13.6464 5.40611 14.2813 6.69932 14.5386C7.99253 14.7958 9.33297 14.6638 10.5511 14.1592C11.7693 13.6546 12.8105 12.8001 13.5431 11.7038C14.2756 10.6075 14.6666 9.31854 14.6666 8C14.6666 7.12452 14.4942 6.25761 14.1591 5.44878C13.8241 4.63994 13.333 3.90501 12.714 3.28595C12.0949 2.6669 11.36 2.17583 10.5511 1.8408C9.74231 1.50577 8.8754 1.33333 7.99992 1.33333ZM7.99992 13.3333C6.94509 13.3333 5.91394 13.0205 5.03688 12.4345C4.15982 11.8485 3.47623 11.0155 3.07256 10.041C2.6689 9.06644 2.56328 7.99408 2.76907 6.95952C2.97485 5.92495 3.48281 4.97464 4.22869 4.22876C4.97457 3.48288 5.92487 2.97493 6.95944 2.76915C7.99401 2.56336 9.06636 2.66898 10.0409 3.07264C11.0154 3.47631 11.8484 4.1599 12.4344 5.03696C13.0205 5.91402 13.3333 6.94517 13.3333 8C13.3333 9.41449 12.7714 10.771 11.7712 11.7712C10.771 12.7714 9.41441 13.3333 7.99992 13.3333ZM7.99992 4.66667C7.64863 4.66644 7.30348 4.75875 6.99919 4.9343C6.69491 5.10984 6.44223 5.36244 6.26659 5.66667C6.21835 5.74255 6.18596 5.8274 6.17137 5.91612C6.15678 6.00484 6.16028 6.09559 6.18167 6.18292C6.20307 6.27026 6.2419 6.35236 6.29585 6.42429C6.34979 6.49622 6.41773 6.5565 6.49557 6.6015C6.57341 6.64649 6.65955 6.67528 6.74881 6.68612C6.83807 6.69696 6.92859 6.68964 7.01495 6.66458C7.1013 6.63953 7.18169 6.59727 7.25129 6.54035C7.32088 6.48342 7.37825 6.413 7.41992 6.33333C7.47866 6.2316 7.56323 6.14719 7.66509 6.08865C7.76694 6.03012 7.88245 5.99953 7.99992 6C8.17673 6 8.3463 6.07024 8.47133 6.19526C8.59635 6.32029 8.66659 6.48986 8.66659 6.66667C8.66659 6.84348 8.59635 7.01305 8.47133 7.13807C8.3463 7.2631 8.17673 7.33333 7.99992 7.33333C7.82311 7.33333 7.65354 7.40357 7.52852 7.5286C7.40349 7.65362 7.33326 7.82319 7.33326 8V8.66667C7.33326 8.84348 7.40349 9.01305 7.52852 9.13807C7.65354 9.2631 7.82311 9.33333 7.99992 9.33333C8.17673 9.33333 8.3463 9.2631 8.47133 9.13807C8.59635 9.01305 8.66659 8.84348 8.66659 8.66667V8.54667C9.1075 8.38668 9.47816 8.07682 9.71377 7.67125C9.94938 7.26567 10.0349 6.79019 9.95552 6.32793C9.87609 5.86566 9.63672 5.44601 9.27925 5.14234C8.92178 4.83868 8.46895 4.67031 7.99992 4.66667Z" fill="#ADB5BD"/>
</svg>
