<svg width="16" height="16" viewBox="0 0 16 16" fill="none" xmlns="http://www.w3.org/2000/svg">
<path d="M10.4786 8.87794L8.75601 8.00001L10.4786 7.12208C10.5653 7.07785 10.6286 7.00504 10.6545 6.91966C10.6804 6.83428 10.6668 6.74331 10.6167 6.66676C10.5667 6.59021 10.4842 6.53434 10.3875 6.51143C10.2908 6.48853 10.1877 6.50046 10.101 6.54461L8.37827 7.4226V5.66668C8.37827 5.57827 8.33849 5.49349 8.26767 5.43097C8.19685 5.36846 8.1008 5.33334 8.00065 5.33334C7.9005 5.33334 7.80445 5.36846 7.73363 5.43097C7.66281 5.49349 7.62303 5.57827 7.62303 5.66668V7.4226L5.90031 6.5446C5.81356 6.50045 5.7105 6.48852 5.61379 6.51142C5.51708 6.53433 5.43463 6.5902 5.38457 6.66675C5.33451 6.7433 5.32094 6.83427 5.34684 6.91965C5.37274 7.00504 5.43599 7.07784 5.52269 7.12207L7.24529 8.00001L5.52269 8.87794C5.43599 8.92217 5.37274 8.99498 5.34684 9.08036C5.32094 9.16574 5.33451 9.25671 5.38457 9.33326C5.43463 9.40981 5.51708 9.46568 5.61379 9.48859C5.7105 9.5115 5.81356 9.49956 5.90031 9.45541L7.62303 8.57742V10.3333C7.62303 10.4217 7.66281 10.5065 7.73363 10.569C7.80445 10.6316 7.9005 10.6667 8.00065 10.6667C8.1008 10.6667 8.19685 10.6316 8.26767 10.569C8.33849 10.5065 8.37827 10.4217 8.37827 10.3333V8.57742L10.101 9.45542C10.1877 9.49957 10.2908 9.51151 10.3875 9.4886C10.4842 9.46569 10.5667 9.40982 10.6167 9.33327C10.6668 9.25672 10.6804 9.16575 10.6545 9.08037C10.6286 8.99499 10.5653 8.92218 10.4786 8.87795V8.87794Z" fill="#FF5B3A"/>
</svg>
