<svg width="25" height="24" viewBox="0 0 25 24" fill="none" xmlns="http://www.w3.org/2000/svg">
<path d="M9 19C8.70333 19 8.41332 19.088 8.16664 19.2528C7.91997 19.4176 7.72771 19.6519 7.61418 19.926C7.50065 20.2001 7.47094 20.5017 7.52882 20.7926C7.5867 21.0836 7.72956 21.3509 7.93934 21.5607C8.14912 21.7704 8.41639 21.9133 8.70736 21.9712C8.99834 22.0291 9.29994 21.9993 9.57403 21.8858C9.84811 21.7723 10.0824 21.58 10.2472 21.3334C10.412 21.0867 10.5 20.7967 10.5 20.5C10.5 20.1022 10.342 19.7206 10.0607 19.4393C9.77936 19.158 9.39782 19 9 19ZM19.5 16H7.5C7.23478 16 6.98043 15.8946 6.79289 15.7071C6.60536 15.5196 6.5 15.2652 6.5 15C6.5 14.7348 6.60536 14.4804 6.79289 14.2929C6.98043 14.1054 7.23478 14 7.5 14H15.9912C16.6426 13.9979 17.2758 13.7847 17.7959 13.3925C18.316 13.0002 18.695 12.45 18.876 11.8242L20.4614 6.2749C20.504 6.12607 20.5114 5.9694 20.4831 5.81722C20.4548 5.66505 20.3915 5.52152 20.2983 5.39793C20.2051 5.27435 20.0845 5.17408 19.946 5.10503C19.8075 5.03598 19.6548 5.00003 19.5 5H7.23907C7.03206 4.41736 6.65044 3.91271 6.14622 3.55481C5.64201 3.19692 5.03971 3.00318 4.42139 3H3.5C3.23478 3 2.98043 3.10536 2.79289 3.29289C2.60536 3.48043 2.5 3.73478 2.5 4C2.5 4.26522 2.60536 4.51957 2.79289 4.70711C2.98043 4.89464 3.23478 5 3.5 5H4.42139C4.63847 5.00076 4.84947 5.07182 5.02279 5.20253C5.1961 5.33325 5.32242 5.51659 5.38281 5.7251L5.53833 6.26984L5.53857 6.2749L7.1792 12.0171C6.41576 12.0992 5.71287 12.4709 5.21527 13.0557C4.71766 13.6405 4.46321 14.3938 4.50433 15.1606C4.54544 15.9273 4.87898 16.6491 5.43626 17.1773C5.99355 17.7055 6.73216 18 7.5 18H19.5C19.7652 18 20.0196 17.8946 20.2071 17.7071C20.3946 17.5196 20.5 17.2652 20.5 17C20.5 16.7348 20.3946 16.4804 20.2071 16.2929C20.0196 16.1054 19.7652 16 19.5 16ZM18.1743 7L16.9531 11.2744C16.8928 11.4831 16.7664 11.6666 16.593 11.7974C16.4196 11.9282 16.2084 11.9993 15.9912 12H9.25439L8.99945 11.1078L7.82642 7H18.1743ZM17 19C16.7033 19 16.4133 19.088 16.1666 19.2528C15.92 19.4176 15.7277 19.6519 15.6142 19.926C15.5006 20.2001 15.4709 20.5017 15.5288 20.7926C15.5867 21.0836 15.7296 21.3509 15.9393 21.5607C16.1491 21.7704 16.4164 21.9133 16.7074 21.9712C16.9983 22.0291 17.2999 21.9993 17.574 21.8858C17.8481 21.7723 18.0824 21.58 18.2472 21.3334C18.412 21.0867 18.5 20.7967 18.5 20.5C18.5 20.1022 18.342 19.7206 18.0607 19.4393C17.7794 19.158 17.3978 19 17 19Z" fill="#6C757D"/>
</svg>
