<svg width="96" height="16" viewBox="0 0 96 16" fill="none" xmlns="http://www.w3.org/2000/svg">
<path d="M3.61065 15.4433C3.22465 15.6413 2.78665 15.2943 2.86465 14.8513L3.69465 10.1213L0.171653 6.76532C-0.157347 6.45132 0.0136534 5.87732 0.454653 5.81532L5.35265 5.11932L7.53665 0.792317C7.73365 0.402317 8.26665 0.402317 8.46365 0.792317L10.6477 5.11932L15.5457 5.81532C15.9867 5.87732 16.1577 6.45132 15.8277 6.76532L12.3057 10.1213L13.1357 14.8513C13.2137 15.2943 12.7757 15.6413 12.3897 15.4433L7.99865 13.1873L3.60965 15.4433H3.61065Z" fill="#FFDA6A"/>
<path d="M23.6107 15.4433C23.2247 15.6413 22.7867 15.2943 22.8647 14.8513L23.6947 10.1213L20.1717 6.76532C19.8427 6.45132 20.0137 5.87732 20.4547 5.81532L25.3527 5.11932L27.5367 0.792317C27.7337 0.402317 28.2667 0.402317 28.4637 0.792317L30.6477 5.11932L35.5457 5.81532C35.9867 5.87732 36.1577 6.45132 35.8277 6.76532L32.3057 10.1213L33.1357 14.8513C33.2137 15.2943 32.7757 15.6413 32.3897 15.4433L27.9987 13.1873L23.6097 15.4433H23.6107Z" fill="#FFDA6A"/>
<path d="M43.6107 15.4433C43.2247 15.6413 42.7867 15.2943 42.8647 14.8513L43.6947 10.1213L40.1717 6.76532C39.8427 6.45132 40.0137 5.87732 40.4547 5.81532L45.3527 5.11932L47.5367 0.792317C47.7337 0.402317 48.2667 0.402317 48.4637 0.792317L50.6477 5.11932L55.5457 5.81532C55.9867 5.87732 56.1577 6.45132 55.8277 6.76532L52.3057 10.1213L53.1357 14.8513C53.2137 15.2943 52.7757 15.6413 52.3897 15.4433L47.9987 13.1873L43.6097 15.4433H43.6107Z" fill="#FFDA6A"/>
<path d="M63.6107 15.4433C63.2247 15.6413 62.7867 15.2943 62.8647 14.8513L63.6947 10.1213L60.1717 6.76532C59.8427 6.45132 60.0137 5.87732 60.4547 5.81532L65.3527 5.11932L67.5367 0.792317C67.7337 0.402317 68.2667 0.402317 68.4637 0.792317L70.6477 5.11932L75.5457 5.81532C75.9867 5.87732 76.1577 6.45132 75.8277 6.76532L72.3057 10.1213L73.1357 14.8513C73.2137 15.2943 72.7757 15.6413 72.3897 15.4433L67.9987 13.1873L63.6097 15.4433H63.6107Z" fill="#FFDA6A"/>
<mask id="mask0_2203_5706" style="mask-type:alpha" maskUnits="userSpaceOnUse" x="80" y="0" width="16" height="16">
<path d="M83.5805 15.3185C83.1977 15.5148 82.7634 15.1707 82.8407 14.7314L83.6638 10.0409L80.1702 6.71294C79.844 6.40156 80.0135 5.83235 80.4509 5.77087L85.308 5.08068L87.4737 0.789813C87.6691 0.40307 88.1976 0.40307 88.393 0.789813L90.5587 5.08068L95.4158 5.77087C95.8532 5.83235 96.0227 6.40156 95.6955 6.71294L92.2029 10.0409L93.026 14.7314C93.1033 15.1707 92.669 15.5148 92.2862 15.3185L87.9319 13.0813L83.5795 15.3185H83.5805Z" fill="#C4C4C4"/>
</mask>
<g mask="url(#mask0_2203_5706)">
<path d="M76 -9.625H88V21.375H76V-9.625Z" fill="#FFDA6A"/>
<path d="M88 -9.625H100V21.375H88V-9.625Z" fill="#F8F9FA"/>
</g>
</svg>
