<svg width="56" height="56" viewBox="0 0 56 56" fill="none" xmlns="http://www.w3.org/2000/svg">
<rect width="56" height="56" rx="28" fill="#E9ECEF"/>
<path fill-rule="evenodd" clip-rule="evenodd" d="M28 28C30.2091 28 32 26.2091 32 24C32 21.7909 30.2091 20 28 20C25.7909 20 24 21.7909 24 24C24 26.2091 25.7909 28 28 28ZM28 30C31.3137 30 34 27.3137 34 24C34 20.6863 31.3137 18 28 18C24.6863 18 22 20.6863 22 24C22 27.3137 24.6863 30 28 30Z" fill="#343A40"/>
<path fill-rule="evenodd" clip-rule="evenodd" d="M32 34H24C21.7909 34 20 35.7909 20 38C28 38 29 38 36 38C36 35.7909 34.2091 34 32 34ZM24 32C21.3741 32 19.1421 33.6869 18.3287 36.0362C18.0694 36.7854 17.9397 37.16 18.2387 37.58C18.5377 38 19.0257 38 20.0018 38C26.0506 38 29.5702 38 35.9971 38C36.9739 38 37.4623 38 37.7613 37.58C38.0603 37.16 37.9306 36.7854 37.6713 36.0362C36.8579 33.6869 34.6259 32 32 32H24Z" fill="#343A40"/>
</svg>
