<svg width="24" height="24" viewBox="0 0 24 24" fill="none" xmlns="http://www.w3.org/2000/svg">
<path fill-rule="evenodd" clip-rule="evenodd" d="M20 12C20 16.4183 16.4183 20 12 20C7.58172 20 4 16.4183 4 12C4 7.58172 7.58172 4 12 4C16.4183 4 20 7.58172 20 12ZM22 12C22 17.5228 17.5228 22 12 22C6.47715 22 2 17.5228 2 12C2 6.47715 6.47715 2 12 2C17.5228 2 22 6.47715 22 12ZM10.1251 7C9.62209 7 9.21435 7.40774 9.21435 7.91072V11.25H8.91072C8.40774 11.25 8 11.6577 8 12.1607C8 12.6637 8.40774 13.0714 8.91072 13.0714H9.21435V13.6787H8.91072C8.40774 13.6787 8 14.0864 8 14.5894C8 15.0924 8.40774 15.5001 8.91072 15.5001H9.21435V16.4108C9.21435 16.9138 9.62209 17.3215 10.1251 17.3215C10.628 17.3215 11.0358 16.9138 11.0358 16.4108V15.5001H12.5536C13.0566 15.5001 13.4643 15.0924 13.4643 14.5894C13.4643 14.0864 13.0566 13.6787 12.5536 13.6787H11.0358V13.0714H13.4643V11.25H11.0358V8.82144H13.4642V7H10.2427L10.241 7.00731C10.203 7.00248 10.1643 7 10.1251 7ZM13.4644 7C13.8631 7 14.2579 7.07852 14.6262 7.23108C14.9945 7.38364 15.3291 7.60725 15.611 7.88915C15.8929 8.17104 16.1165 8.5057 16.2691 8.87401C16.4217 9.24233 16.5002 9.63708 16.5002 10.0357C16.5002 10.4344 16.4217 10.8292 16.2691 11.1975C16.1165 11.5658 15.8929 11.9004 15.611 12.1823C15.3291 12.4642 14.9945 12.6878 14.6262 12.8404C14.2579 12.993 13.8631 13.0715 13.4644 13.0715L13.4644 11.247C13.6235 11.247 13.781 11.2157 13.928 11.1548C14.0749 11.0939 14.2085 11.0047 14.3209 10.8922C14.4334 10.7798 14.5226 10.6462 14.5835 10.4993C14.6444 10.3523 14.6757 10.1948 14.6757 10.0357C14.6757 9.87667 14.6444 9.71916 14.5835 9.5722C14.5226 9.42524 14.4334 9.29171 14.3209 9.17923C14.2085 9.06676 14.0749 8.97753 13.928 8.91666C13.781 8.85579 13.6235 8.82446 13.4644 8.82446V7Z" fill="#495057"/>
</svg>
