<svg width="104" height="32" viewBox="0 0 104 32" fill="none" xmlns="http://www.w3.org/2000/svg">
<path fill-rule="evenodd" clip-rule="evenodd" d="M18.8269 22.6374H14.6803C8.21232 22.6374 12.9113 8.84374 18.3567 8.84374H24.9081C25.9582 8.84374 27.8102 9.03771 28.7226 6.42912L30.1323 2.37695H21.1486C16.2836 2.37695 12.4966 4.09752 9.76016 6.98428C5.03322 11.9245 3.4303 19.6401 4.56344 23.331C5.6415 26.745 8.57154 28.9928 13.16 29.0483L16.7258 29.0762H21.1211L22.1992 25.8291C23.0006 23.5254 21.2037 22.6374 18.8269 22.6374ZM69.3005 16.9201L70.6552 12.5072H56.1986C53.7938 12.5072 52.7157 13.1733 52.301 14.561L50.9464 18.974H65.4034C67.8081 18.974 68.8862 18.3078 69.3005 16.9201ZM48.7906 24.6912L47.436 29.1038H61.8926C64.2698 29.1038 65.3754 28.438 65.7901 27.0503L67.1448 22.6374H52.6878C50.3109 22.6374 49.2329 23.3035 48.7906 24.6912ZM72.6732 6.81745L74.0275 2.40489H59.5708C57.166 2.40489 56.088 3.07061 55.6733 4.45831L54.3186 8.87128H68.7757C71.1529 8.87128 72.2305 8.20516 72.6732 6.81745ZM50.8358 7.70587C50.2279 3.59823 48.0443 2.40489 42.737 2.40489H33.0624L27.4234 18.974H30.9893C33.1175 18.974 34.1955 19.0015 35.3291 15.9487L37.6784 8.84374H41.2718C44.3403 8.84374 43.649 12.7015 42.1012 16.448C40.719 19.751 38.3142 22.6649 35.4117 22.6649H29.4135C27.0087 22.6649 25.9031 23.331 25.4609 24.7187L23.9681 29.1317H28.363L32.6752 29.1038C36.4897 29.0762 39.6133 28.7988 43.2622 25.4958C47.1318 21.9713 51.6101 12.9234 50.8358 7.70587ZM99.4303 2.37695H91.0549L83.1768 10.7862C82.2648 11.7576 81.3248 12.7291 80.4128 13.8669H80.3298L84.2548 2.37695H77.4273L68.2229 29.1038H75.05L77.9801 20.6945L81.0207 18.1135L83.4258 25.7181C84.1718 28.0773 84.9461 29.1038 86.6045 29.1038H91.8288L86.4664 14.1723L99.4303 2.37695Z" fill="#00B33C"/>
</svg>
