<svg width="104" height="32" viewBox="0 0 104 32" fill="none" xmlns="http://www.w3.org/2000/svg">
<mask id="mask0_2064_2186" style="mask-type:luminance" maskUnits="userSpaceOnUse" x="0" y="9" width="104" height="15">
<path d="M103.533 9H0V23.989H103.533V9Z" fill="white"/>
</mask>
<g mask="url(#mask0_2064_2186)">
<path d="M8.57484 9.31836V23.7507H6.259V11.3921H2.3203V23.7507H0V9.31836H8.57484Z" fill="#1928DC"/>
<path d="M11.4986 23.1808C10.803 22.5187 10.2984 21.6691 10.0411 20.7267C9.66424 19.407 9.48926 18.0341 9.52255 16.6582C9.49038 15.2472 9.66525 13.8394 10.0411 12.483C10.2964 11.513 10.8 10.6329 11.4986 9.9361C12.1109 9.39249 12.8901 9.09375 13.696 9.09375C14.5017 9.09375 15.2811 9.39249 15.8933 9.9361C16.591 10.6246 17.0922 11.4995 17.3418 12.4644C17.7152 13.8214 17.8901 15.2288 17.8604 16.6396C17.8941 18.0232 17.7191 19.4038 17.3418 20.7313C17.0917 21.6734 16.5894 22.5227 15.8933 23.1808C15.2709 23.7055 14.4934 23.992 13.6915 23.992C12.8896 23.992 12.112 23.7055 11.4897 23.1808H11.4986ZM12.0709 19.5344C12.1621 20.1529 12.3851 20.7425 12.7236 21.2602C12.8299 21.4281 12.9735 21.5671 13.1423 21.6656C13.3111 21.7641 13.5002 21.8192 13.6937 21.8262C14.266 21.8262 14.7175 21.3948 15.0349 20.5226C15.4271 19.2765 15.6027 17.968 15.5535 16.6582C15.5675 15.6542 15.4927 14.6511 15.33 13.6613C15.2311 13.0176 15.0027 12.4027 14.6594 11.8567C14.5569 11.6801 14.4138 11.5325 14.243 11.4273C14.0721 11.3221 13.8788 11.2624 13.6803 11.2536C13.4854 11.2649 13.2961 11.3259 13.1293 11.431C12.9624 11.5362 12.8231 11.6824 12.7236 11.8567C12.3849 12.4084 12.1624 13.0281 12.0709 13.6752C11.9007 14.6626 11.8229 15.6646 11.8384 16.6675C11.8233 17.6288 11.9012 18.5893 12.0709 19.5344Z" fill="#1928DC"/>
<path d="M24.2223 9.31836V14.8528H22.9973C22.5505 14.8723 22.1054 14.785 21.6963 14.5977C21.3729 14.4212 21.1255 14.1246 21.0033 13.7673C20.8388 13.2725 20.7645 12.7502 20.7843 12.2271V9.31836H18.4684V12.2271C18.3988 13.4858 18.7598 14.7295 19.4878 15.7389C20.1673 16.5894 21.1822 17.0147 22.5323 17.0147H24.2223V23.7507H26.5426V9.31836H24.2223Z" fill="#1928DC"/>
<path d="M35.2694 11.3921H32.5423V23.7507H30.2354V11.3921H27.5127V9.31836H35.2694V11.3921Z" fill="#1928DC"/>
<path d="M38.5657 9.32147H40.4211C41.1835 9.29033 41.9382 9.49369 42.5896 9.906C43.163 10.3061 43.608 10.8747 43.8682 11.539C44.1887 12.362 44.3905 13.2296 44.467 14.1137L45.5492 23.7538H43.2333L42.4775 17.0178H38.5657V23.7538H36.25V9.32147H38.5657ZM38.5657 14.9441H42.2498L42.1423 14.1137C42.1017 13.581 41.9966 13.0558 41.8295 12.5503C41.7112 12.2107 41.482 11.925 41.1812 11.7431C40.7911 11.551 40.3608 11.4633 39.9293 11.4879H38.5657V14.9441Z" fill="#1928DC"/>
<path d="M55.1508 9.31958C55.9237 9.30036 56.6861 9.50779 57.3507 9.91803C58.0021 10.3483 58.5094 10.977 58.8036 11.718C59.1747 12.6607 59.3514 13.6737 59.322 14.6917C59.3437 15.6578 59.1778 16.6185 58.8349 17.5169C58.579 18.202 58.1695 18.8141 57.641 19.303C57.2749 19.6587 56.8005 19.8704 56.2999 19.9014C56.042 19.9186 55.7833 19.8764 55.5433 19.7777C55.3028 19.679 55.0863 19.5264 54.9096 19.3308V23.7519H52.5938V9.31958H55.1508ZM55.048 16.8118C55.1068 17.0693 55.2247 17.3081 55.3925 17.5076C55.4474 17.5763 55.5154 17.6324 55.5924 17.6723C55.6693 17.7122 55.7536 17.7352 55.8394 17.7396C56.0416 17.7279 56.2318 17.6366 56.3714 17.4845C56.5848 17.2489 56.7387 16.9619 56.8183 16.6494C56.9474 16.1694 57.0062 15.6722 56.9927 15.1741C56.9927 13.8257 56.8349 12.8731 56.5191 12.3165C56.3857 12.0598 56.1862 11.8464 55.9434 11.6998C55.7002 11.5533 55.423 11.4793 55.1419 11.4861H54.9096V15.6613C54.9053 16.0495 54.9521 16.4365 55.048 16.8118Z" fill="#1928DC"/>
<path d="M61.9023 23.1813C61.2052 22.5205 60.7003 21.6704 60.4448 20.7272C60.0663 19.4078 59.8896 18.0349 59.9217 16.6587C59.8904 15.2474 60.0667 13.8395 60.4448 12.4835C60.6976 11.5125 61.2018 10.6318 61.9023 9.93658C62.505 9.38072 63.2864 9.07946 64.0929 9.09226C64.9025 9.0783 65.6881 9.37763 66.297 9.93194C66.9968 10.6249 67.4998 11.5045 67.7499 12.4742C68.1214 13.8314 68.295 15.2388 68.2641 16.6494C68.2962 18.0262 68.1241 19.3999 67.7545 20.7225C67.5025 21.6638 67.0006 22.5126 66.3059 23.172C65.6799 23.7146 64.8858 24.0031 64.0705 23.9839C63.2787 23.9922 62.5101 23.7077 61.9023 23.1813ZM62.4699 19.5349C62.5654 20.1522 62.788 20.7409 63.1229 21.2607C63.2292 21.4283 63.373 21.5672 63.5416 21.6656C63.7105 21.7641 63.8996 21.8193 64.0929 21.8267C64.6697 21.8267 65.1166 21.3952 65.4341 20.5231C65.8187 19.2756 65.9865 17.9671 65.9305 16.6587C65.9452 15.6545 65.869 14.6511 65.7024 13.6618C65.6154 13.0221 65.4024 12.4077 65.0764 11.8572C64.9806 11.6752 64.8394 11.5234 64.6674 11.4176C64.4954 11.3118 64.2993 11.256 64.0995 11.256C63.8996 11.256 63.7036 11.3118 63.5315 11.4176C63.3599 11.5234 63.2184 11.6752 63.1229 11.8572C62.7873 12.4105 62.565 13.0295 62.4699 13.6757C62.304 14.6635 62.2275 15.6653 62.2418 16.6679C62.2278 17.6291 62.3044 18.5892 62.4699 19.5349Z" fill="#1928DC"/>
<path d="M69.8686 12.5874C70.4389 11.5075 71.3292 10.6469 72.4079 10.1333C73.6667 9.56251 75.0311 9.28538 76.4047 9.32148V11.488C74.7593 11.488 73.4985 11.9209 72.6225 12.7869C71.7282 13.6498 71.308 14.9441 71.308 16.6606C71.308 18.3771 71.7549 19.5507 72.6178 20.3719C73.4808 21.193 74.7504 21.6013 76.4047 21.6013V23.7677C74.0394 23.7677 72.2065 23.1739 70.919 21.9863C69.6316 20.7987 68.9875 19.0312 68.9875 16.6745C68.9388 15.2563 69.2419 13.8489 69.8686 12.5874Z" fill="#1928DC"/>
<path d="M77.67 12.5874C78.2402 11.5075 79.1306 10.6469 80.2093 10.1333C81.4681 9.56251 82.8325 9.28538 84.2061 9.32148V11.488C82.5607 11.488 81.2999 11.9209 80.4238 12.7869C79.5296 13.6498 79.1093 14.9441 79.1093 16.6606C79.1093 18.3771 79.5563 19.5507 80.4192 20.3719C81.2821 21.193 82.5518 21.6013 84.2061 21.6013V23.7677C81.8412 23.7677 80.0078 23.1739 78.7204 21.9863C77.433 20.7987 76.8024 19.0173 76.8024 16.6606C76.7517 15.2483 77.0502 13.846 77.67 12.5874Z" fill="#1928DC"/>
<path d="M87.6127 9.31985V14.4739L91.5558 11.0271L93.8628 9.01367V23.7661H91.5558V13.9312L87.617 17.378V23.7522H85.2969V9.31985H87.6127Z" fill="#1928DC"/>
<path d="M97.2743 9.31985V14.4739L101.217 11.0271L103.524 9.01367V23.7661H101.209V13.9312L97.2651 17.378V23.7522H94.9492V9.31985H97.2743Z" fill="#1928DC"/>
</g>
</svg>
