<svg width="130" height="32" viewBox="0 0 130 32" fill="none" xmlns="http://www.w3.org/2000/svg">
<path d="M10.3308 0.00134277L15.8017 20.851L21.4884 0.00134277H31.8239L20.9701 31.3454H10.6826L0 0.00134277H10.3308Z" fill="white"/>
<path d="M44.104 17.3716C44.104 15.282 42.2369 13.4072 40.1119 13.4072C37.4204 13.4072 35.9005 14.9361 35.9005 17.3716H44.104ZM35.9005 21.9874C35.9005 24.6864 37.9857 26.4696 40.3734 26.4696C41.803 26.4696 43.1071 25.8206 43.758 24.4705H52.3965C50.8321 30.1252 45.1055 32.0001 39.807 32.0001C32.5124 32.0001 26.8691 27.8208 26.8691 20.1601C26.8691 12.6666 32.4749 7.87671 39.7612 7.87671C48.1863 7.87671 53.1365 13.406 53.1365 21.9874H35.9005Z" fill="white"/>
<path d="M70.9428 20.1125C70.9428 17.6746 70.0293 14.8014 67.1173 14.8014C64.3836 14.8014 63.2976 17.591 63.2976 19.9395C63.2976 22.3797 64.1678 25.3841 67.1173 25.3841C70.0703 25.3852 70.9428 22.5968 70.9428 20.1125ZM63.5169 10.8439C65.2913 8.74964 67.3765 7.87665 70.0715 7.87665C75.886 7.87665 79.9672 12.93 79.9672 19.8083C79.9672 26.5531 77.101 31.9988 69.6833 31.9988C65.9047 31.9988 63.8183 30.3004 62.689 28.1238H62.6045V31.3441H54.4844V0H63.5169V10.8439Z" fill="white"/>
<path d="M98.1141 17.3716C98.1141 14.9361 96.5989 13.4072 93.9028 13.4072C91.7789 13.4072 89.9095 15.2809 89.9095 17.3716H98.1141ZM80.8828 21.9874C80.8828 13.4072 85.8307 7.87671 94.2522 7.87671C101.543 7.87671 107.144 12.6666 107.144 20.1601C107.144 27.8197 101.505 32.0001 94.2088 32.0001C88.915 32.0001 83.1802 30.1252 81.6205 24.4705H90.2625C90.911 25.8206 92.2105 26.4696 93.6447 26.4696C96.0336 26.4696 98.1153 24.6864 98.1153 21.9874H80.8828Z" fill="white"/>
<path d="M116.234 13.1472H116.322C117.58 9.57626 119.794 7.87671 123.31 7.87671C123.7 7.87671 124.093 7.9661 124.482 8.0137V17.0652C123.876 16.9781 123.223 16.8051 122.619 16.8051C118.927 16.8051 117.061 18.5453 117.061 23.4663V31.3453H108.032V8.53377H116.236V13.1472H116.234Z" fill="white"/>
<path d="M130 7.87897C130 8.19706 129.941 8.4954 129.825 8.76937C129.703 9.04102 129.527 9.29526 129.292 9.51931V9.51815C129.056 9.74685 128.797 9.91634 128.508 10.0289C128.221 10.1427 127.908 10.2008 127.578 10.2008C127.246 10.2008 126.937 10.1427 126.653 10.0289C126.362 9.91634 126.101 9.74569 125.87 9.51815V9.51931C125.628 9.29526 125.452 9.04102 125.337 8.76937C125.214 8.49656 125.154 8.19706 125.154 7.87897C125.154 7.56089 125.213 7.26602 125.337 6.99205C125.452 6.71808 125.628 6.46616 125.87 6.24095C126.101 6.01806 126.362 5.84973 126.653 5.73364C126.937 5.61871 127.245 5.56067 127.578 5.56067C127.908 5.56067 128.221 5.61871 128.508 5.73364C128.797 5.84857 129.056 6.0169 129.292 6.24559V6.24095C129.526 6.46616 129.702 6.71808 129.825 6.99205C129.941 7.26602 130 7.56089 130 7.87897ZM129.292 7.87897C129.292 7.65376 129.251 7.44132 129.165 7.25209C129.081 7.0617 128.955 6.88292 128.786 6.72388C128.621 6.56252 128.44 6.4383 128.235 6.36517C128.035 6.2839 127.814 6.24559 127.578 6.24559C127.337 6.24559 127.117 6.2839 126.919 6.36517C126.854 6.38955 126.788 6.41857 126.725 6.45572H126.769H127.686C127.868 6.45572 128.029 6.47313 128.164 6.50796H128.167C128.321 6.54395 128.447 6.60663 128.548 6.68325V6.68441C128.644 6.76103 128.717 6.85042 128.771 6.95606C128.819 7.05474 128.847 7.16966 128.847 7.28575C128.847 7.41229 128.819 7.52954 128.771 7.63635C128.712 7.7385 128.64 7.83253 128.539 7.91728C128.498 7.95327 128.447 7.98229 128.391 8.01364L128.479 8.11927L128.484 8.12392L128.589 8.27135L128.596 8.27716C128.627 8.32011 128.653 8.36887 128.681 8.41647H128.688L128.924 8.82858L128.952 8.86921C129.044 8.75312 129.115 8.63355 129.169 8.5105C129.251 8.31895 129.292 8.10883 129.292 7.87897ZM126.533 6.58109C126.472 6.62404 126.422 6.6728 126.365 6.72388C126.199 6.88176 126.073 7.0617 125.989 7.25209C125.908 7.44132 125.87 7.65376 125.87 7.87897C125.87 8.10302 125.908 8.31895 125.989 8.5105C126.073 8.70437 126.199 8.87618 126.365 9.0387C126.533 9.1989 126.715 9.31964 126.918 9.40206C127.116 9.47984 127.336 9.51815 127.577 9.51815C127.813 9.51815 128.033 9.47868 128.234 9.40206C128.381 9.34286 128.526 9.26391 128.648 9.15827H128.337H128.212L128.135 9.04683L127.914 8.67418C127.831 8.54184 127.752 8.42807 127.697 8.35029C127.641 8.28644 127.607 8.24233 127.584 8.22956C127.567 8.21911 127.535 8.20983 127.487 8.19822C127.438 8.18893 127.374 8.18661 127.3 8.1808V8.93654V9.15711H127.069H126.767H126.532V8.93654V6.67861V6.58109H126.533ZM127.302 7.14529V7.47962H127.367C127.672 7.47962 127.873 7.4715 127.958 7.44131H127.963C127.97 7.43667 127.985 7.43203 127.991 7.42738V7.42506C128.006 7.41577 128.013 7.40649 128.026 7.39372V7.39139C128.04 7.37746 128.049 7.36353 128.051 7.35076C128.055 7.33915 128.055 7.32523 128.055 7.31362C128.055 7.2904 128.051 7.27182 128.04 7.25325V7.25209C128.032 7.23468 128.02 7.21378 128.002 7.19869C127.991 7.18824 127.961 7.17895 127.897 7.16851C127.799 7.15341 127.672 7.14761 127.519 7.14761H127.302V7.14529Z" fill="white"/>
</svg>
