<svg width="32" height="32" viewBox="0 0 32 32" fill="none" xmlns="http://www.w3.org/2000/svg">
<rect width="32" height="32" rx="16" fill="#E27E35"/>
<path d="M18.0198 20.1335C19.0367 19.8939 20.0158 19.4773 20.917 18.8913C21.5991 18.446 21.8055 17.5138 21.375 16.8055C20.9446 16.0972 20.0436 15.8836 19.3589 16.3289C17.3151 17.6596 14.6847 17.657 12.6409 16.3289C11.9563 15.8836 11.0552 16.0972 10.6247 16.8055C10.1943 17.5112 10.4007 18.446 11.0828 18.8913C11.9839 19.4773 12.9631 19.8939 13.98 20.1335L11.1936 23.0188C10.6222 23.6099 10.6222 24.5656 11.1936 25.1568C11.4805 25.451 11.8531 25.5994 12.2256 25.5994C12.6006 25.5994 12.9731 25.451 13.2601 25.1568L16.0012 22.3209L18.7422 25.1568C19.3136 25.7479 20.2373 25.7479 20.8087 25.1568C21.3801 24.5656 21.3801 23.6073 20.8087 23.0188L18.0198 20.1335ZM16.0012 8.62604C17.1414 8.62604 18.0677 9.58434 18.0677 10.764C18.0677 11.941 17.1414 12.8993 16.0012 12.8993C14.8635 12.8993 13.9347 11.941 13.9347 10.764C13.9347 9.58434 14.8635 8.62604 16.0012 8.62604ZM16.0012 15.9227C18.7523 15.9227 20.9899 13.6076 20.9899 10.764C20.9899 7.91513 18.7523 5.6001 16.0012 5.6001C13.25 5.6001 11.0124 7.91513 11.0124 10.7614C11.0124 13.6076 13.25 15.9227 16.0012 15.9227Z" fill="white"/>
</svg>
