<svg width="92" height="20" viewBox="0 0 92 20" fill="none" xmlns="http://www.w3.org/2000/svg">
<g clip-path="url(#clip0_4009_2925)">
<path d="M9.09949 12.9966C11.1195 12.7407 12.7514 11.1104 13.0091 9.09052C13.0991 8.40113 13.0293 7.7003 12.8053 7.0421C12.5812 6.38391 12.2088 5.78594 11.7167 5.29434C11.2247 4.80274 10.6262 4.43064 9.96738 4.20677C9.30859 3.9829 8.60712 3.91322 7.91711 4.00313C5.89546 4.26064 4.26363 5.89099 4.0075 7.9092C3.91752 8.5986 3.98725 9.29943 4.21133 9.95762C4.43541 10.6158 4.80784 11.2138 5.29988 11.7054C5.79193 12.197 6.39043 12.5691 7.04922 12.793C7.70802 13.0168 8.40948 13.0865 9.09949 12.9966ZM9.37495 0.0439428C11.3198 0.248492 13.1354 1.11389 14.5182 2.49543C15.9009 3.87698 16.7671 5.69093 16.9719 7.63399C17.5051 13.0095 13.0204 17.4901 7.63843 16.9574C5.6939 16.7525 3.87868 15.887 2.49621 14.5054C1.11375 13.1239 0.247802 11.3102 0.0431329 9.36734C-0.490068 3.99186 3.99462 -0.488777 9.37495 0.0439428ZM21.5371 0.380313H33.9908C34.4644 0.380313 34.7318 0.92108 34.4467 1.29769L25.8301 12.6554H32.5813C33.812 12.6554 34.7801 13.774 34.5256 15.0486C34.3387 15.9837 33.4608 16.621 32.5072 16.621H18.9822C18.5135 16.621 18.2477 16.0851 18.5296 15.7133L27.1526 4.34594H21.6112C20.6575 4.34594 19.7796 3.707 19.5928 2.77353C19.3366 1.49886 20.3064 0.380313 21.5371 0.380313ZM75.5837 0.425377C76.8692 0.154993 78 1.12709 78 2.36312V16.0481C78 16.5261 77.4475 16.7916 77.0737 16.4955L66.3308 7.98002V14.6414C66.3308 15.8775 65.2 16.8496 63.9145 16.5792C62.993 16.386 62.3616 15.5282 62.3616 14.5883V0.951659C62.3616 0.473659 62.9141 0.208104 63.2878 0.504238L74.0324 9.01971V2.41624C74.0324 1.47633 74.6655 0.620117 75.5853 0.425377H75.5837ZM47.6108 0.000488281C54.188 0.000488281 59.52 3.80517 59.52 8.49825C59.52 13.1913 54.188 16.996 47.6108 16.996C41.0336 16.996 35.7015 13.1913 35.7015 8.49825C35.7015 3.80517 41.0336 0.000488281 47.6108 0.000488281ZM47.6108 3.96611C43.0665 3.96611 39.6707 6.35933 39.6707 8.49825C39.6707 10.6372 43.0665 13.0304 47.6108 13.0304C52.1551 13.0304 55.5508 10.6388 55.5508 8.49825C55.5508 6.35772 52.1551 3.96611 47.6108 3.96611Z" fill="#005BFF"/>
</g>
<defs>
<clipPath id="clip0_4009_2925">
<rect width="92" height="20" fill="white" transform="translate(0 0.000488281)"/>
</clipPath>
</defs>
</svg>
