<svg width="41" height="13" viewBox="0 0 41 13" fill="none" xmlns="http://www.w3.org/2000/svg">
<path d="M7.45312 0.625V2.46094H2.33594V12H0V0.625H7.45312ZM1.53125 4.77344H4.1875C5.08333 4.77344 5.85417 4.92188 6.5 5.21875C7.14583 5.51562 7.64323 5.93229 7.99219 6.46875C8.34115 7.00521 8.51562 7.63021 8.51562 8.34375C8.51562 8.88542 8.41667 9.38021 8.21875 9.82812C8.02083 10.2708 7.73177 10.6562 7.35156 10.9844C6.97656 11.3073 6.52344 11.5573 5.99219 11.7344C5.46094 11.9115 4.85938 12 4.1875 12H0V0.625H2.35156V10.1719H4.1875C4.63542 10.1719 5.00521 10.0885 5.29688 9.92188C5.58854 9.75521 5.80729 9.53385 5.95312 9.25781C6.10417 8.97656 6.17969 8.66667 6.17969 8.32812C6.17969 8.00521 6.10417 7.71354 5.95312 7.45312C5.80729 7.1875 5.58854 6.97917 5.29688 6.82812C5.00521 6.67708 4.63542 6.60156 4.1875 6.60156H1.53125V4.77344ZM14.6719 2.57031L11.5781 12H9.08594L13.3125 0.625H14.8984L14.6719 2.57031ZM17.2422 12L14.1406 2.57031L13.8906 0.625H15.4922L19.7422 12H17.2422ZM17.1016 7.76562V9.60156H11.0938V7.76562H17.1016ZM25.2266 7.94531H22.3281V6.11719H25.2266C25.6745 6.11719 26.0391 6.04427 26.3203 5.89844C26.6016 5.7474 26.8073 5.53906 26.9375 5.27344C27.0677 5.00781 27.1328 4.70833 27.1328 4.375C27.1328 4.03646 27.0677 3.72135 26.9375 3.42969C26.8073 3.13802 26.6016 2.90365 26.3203 2.72656C26.0391 2.54948 25.6745 2.46094 25.2266 2.46094H23.1406V12H20.7969V0.625H25.2266C26.1172 0.625 26.8802 0.786458 27.5156 1.10938C28.1562 1.42708 28.6458 1.86719 28.9844 2.42969C29.3229 2.99219 29.4922 3.63542 29.4922 4.35938C29.4922 5.09375 29.3229 5.72917 28.9844 6.26562C28.6458 6.80208 28.1562 7.21615 27.5156 7.50781C26.8802 7.79948 26.1172 7.94531 25.2266 7.94531ZM37.7031 8.22656H40.0391C39.9922 8.99219 39.7812 9.67188 39.4062 10.2656C39.0365 10.8594 38.5182 11.3229 37.8516 11.6562C37.1901 11.9896 36.3932 12.1562 35.4609 12.1562C34.7318 12.1562 34.0781 12.0312 33.5 11.7812C32.9219 11.526 32.4271 11.1615 32.0156 10.6875C31.6094 10.2135 31.2995 9.64062 31.0859 8.96875C30.8724 8.29688 30.7656 7.54427 30.7656 6.71094V5.92188C30.7656 5.08854 30.875 4.33594 31.0938 3.66406C31.3177 2.98698 31.6354 2.41146 32.0469 1.9375C32.4635 1.46354 32.9609 1.09896 33.5391 0.84375C34.1172 0.588542 34.763 0.460938 35.4766 0.460938C36.4245 0.460938 37.224 0.632812 37.875 0.976562C38.5312 1.32031 39.0391 1.79427 39.3984 2.39844C39.763 3.0026 39.9818 3.6901 40.0547 4.46094H37.7109C37.6849 4.0026 37.5938 3.61458 37.4375 3.29688C37.2812 2.97396 37.0443 2.73177 36.7266 2.57031C36.4141 2.40365 35.9974 2.32031 35.4766 2.32031C35.0859 2.32031 34.7448 2.39323 34.4531 2.53906C34.1615 2.6849 33.9167 2.90625 33.7188 3.20312C33.5208 3.5 33.3724 3.875 33.2734 4.32812C33.1797 4.77604 33.1328 5.30208 33.1328 5.90625V6.71094C33.1328 7.29948 33.1771 7.81771 33.2656 8.26562C33.3542 8.70833 33.4896 9.08333 33.6719 9.39062C33.8594 9.69271 34.099 9.92188 34.3906 10.0781C34.6875 10.2292 35.0443 10.3047 35.4609 10.3047C35.9505 10.3047 36.3542 10.2266 36.6719 10.0703C36.9896 9.91406 37.2318 9.68229 37.3984 9.375C37.5703 9.06771 37.6719 8.6849 37.7031 8.22656Z" fill="#343A40"/>
</svg>
