<svg width="16" height="15" viewBox="0 0 16 15" fill="none" xmlns="http://www.w3.org/2000/svg">
<mask id="mask0_4009_2918" style="mask-type:alpha" maskUnits="userSpaceOnUse" x="0" y="0" width="16" height="15">
<path d="M3.5805 14.8187C3.19773 15.0151 2.76338 14.671 2.84073 14.2317L3.6638 9.54116L0.17022 6.21318C-0.156033 5.90181 0.0135394 5.3326 0.450857 5.27112L5.30796 4.58093L7.47372 0.290058C7.66908 -0.0966859 8.19763 -0.0966859 8.39298 0.290058L10.5587 4.58093L15.4158 5.27112C15.8532 5.3326 16.0227 5.90181 15.6955 6.21318L12.2029 9.54116L13.026 14.2317C13.1033 14.671 12.669 15.0151 12.2862 14.8187L7.93186 12.5816L3.57951 14.8187H3.5805Z" fill="#C4C4C4"/>
</mask>
<g mask="url(#mask0_4009_2918)">
<path d="M-4 -10.125H8V20.875H-4V-10.125Z" fill="#FFDA6A"/>
<path d="M8 -10.125H20V20.875H8V-10.125Z" fill="#E9ECEF"/>
</g>
</svg>
