<svg width="92" height="20" viewBox="0 0 92 20" fill="none" xmlns="http://www.w3.org/2000/svg">
<path d="M2.79589 12.6556L0 3.22461H1.85134L4.00493 10.466L6.30965 3.22461H8.02875L10.3335 10.5005L12.4871 3.22461H14.3195L11.5236 12.6556H9.38891L7.14086 5.62116L4.9117 12.6556H2.79589Z" fill="#BE11A5"/>
<path d="M15.6045 3.22461H17.3614V12.6556H15.6045V3.22461Z" fill="#BE11A5"/>
<path d="M21.0824 11.1727H25.3329V12.6555H19.3633V3.2417H21.0824V11.1727Z" fill="#BE11A5"/>
<path d="M30.7355 3.24191C32.0767 3.20742 33.3802 3.70743 34.3059 4.60398C36.2139 6.48329 36.2139 9.41432 34.3059 11.2936C33.3802 12.1902 32.0767 12.6902 30.7355 12.6557H26.6172V3.24191H30.7355ZM30.7355 11.1729C31.7178 11.1729 32.5301 10.8626 33.1346 10.2592C33.7769 9.63846 34.117 8.79363 34.0792 7.9488C34.117 7.08674 33.7769 6.25915 33.1346 5.63846C32.5112 5.03501 31.6422 4.69018 30.7355 4.72467H28.3363V11.1729H30.7355Z" fill="#BE11A5"/>
<path d="M44.9608 9.96611C44.9797 10.6903 44.6396 11.3971 44.054 11.8799C43.4495 12.3971 42.6561 12.673 41.8249 12.6558H37.3477V3.24197H41.5037C42.2971 3.22473 43.0717 3.5006 43.6762 3.98335C44.2618 4.44887 44.583 5.13853 44.5641 5.84542C44.6019 6.60404 44.1863 7.32818 43.5062 7.75922C44.4129 8.17301 44.9797 9.03508 44.9608 9.96611ZM39.0667 4.69025V7.17301H41.5037C42.2594 7.17301 42.8639 6.62129 42.8639 5.93163C42.8639 5.24198 42.2594 4.69025 41.5037 4.69025H39.0667ZM41.8249 11.1903C42.6183 11.1558 43.2417 10.5523 43.2039 9.82818C43.185 9.13853 42.5616 8.5868 41.8249 8.56956H39.0667V11.2075L41.8249 11.1903Z" fill="#BE11A5"/>
<path d="M48.3236 11.1727H52.9519V12.6555H46.6045V3.2417H52.8764V4.72446H48.3236V7.17273H52.5174V8.63825H48.3236V11.1727Z" fill="#BE11A5"/>
<path d="M60.452 12.6558L58.2229 9.22477H56.2015V12.6558H54.4824V3.22477H58.6763C59.5641 3.20753 60.4331 3.53511 61.0566 4.12132C61.6989 4.67304 62.0578 5.44891 62.0389 6.25925C62.02 7.46615 61.2077 8.55235 59.9609 8.98339L62.3411 12.6558H60.452ZM56.2015 4.69029V7.84546H58.6574C59.6019 7.81098 60.3387 7.0696 60.3009 6.19029C60.2631 5.37994 59.5453 4.72477 58.6574 4.69029H56.2015Z" fill="#BE11A5"/>
<path d="M69.6138 12.6558L67.4035 9.22477H65.3822V12.6558H63.6631V3.22477H67.8569C68.7448 3.20753 69.6138 3.53511 70.2372 4.12132C70.8795 4.67304 71.2384 5.44891 71.2196 6.25925C71.2007 7.46615 70.3883 8.55235 69.1415 8.98339L71.5218 12.6558H69.6138ZM65.3822 4.69029V7.84546H67.838C68.8015 7.79374 69.5194 7.05235 69.4627 6.17304C69.406 5.37994 68.707 4.72477 67.838 4.69029H65.3822Z" fill="#BE11A5"/>
<path d="M72.7686 3.22461H74.4876V12.6556H72.7686V3.22461Z" fill="#BE11A5"/>
<path d="M78.2279 11.1727H82.8562V12.6555H76.5088V3.2417H82.7807V4.72446H78.2279V7.17273H82.4217V8.63825H78.2279V11.1727Z" fill="#BE11A5"/>
<path d="M84.0654 10.518L85.5578 9.74209C85.9734 10.8111 86.8424 11.3283 88.1459 11.3283C89.4494 11.3283 90.0917 10.8283 90.0917 10.0869C90.1106 9.74209 89.9028 9.39726 89.5628 9.22485C89.2227 9.01795 88.5993 8.79381 87.7114 8.55243C86.7102 8.27657 86.219 8.10416 85.5201 7.69037C84.8211 7.27657 84.4999 6.63864 84.4999 5.79381C84.4621 5.03519 84.84 4.29381 85.4823 3.81106C86.1435 3.31106 86.9936 3.05243 87.8626 3.06968C89.4305 3.01795 90.8663 3.84554 91.5086 5.13864L90.0728 5.88002C89.6383 5.01795 88.9016 4.56968 87.8814 4.56968C86.8613 4.56968 86.2379 5.01795 86.2379 5.74209C86.2379 6.46623 86.748 6.75933 88.3537 7.20761C88.7504 7.3283 89.0338 7.4145 89.2227 7.48347C89.4116 7.55243 89.6761 7.63864 89.9973 7.75933C90.2617 7.84554 90.5262 7.98347 90.7529 8.13864C91.3008 8.53519 91.9053 9.17313 91.8297 10.0697C91.8675 10.8628 91.4897 11.6042 90.8096 12.1042C90.1295 12.6042 89.2416 12.8455 88.127 12.8455C86.0679 12.8283 84.5944 11.949 84.0654 10.518Z" fill="#BE11A5"/>
</svg>
