<svg width="32" height="32" viewBox="0 0 32 32" fill="none" xmlns="http://www.w3.org/2000/svg">
<rect width="32" height="32" rx="16" fill="#5181B8"/>
<path d="M18.0261 15.7873C17.675 15.6549 17.675 15.1493 17.6532 14.7971C17.5655 13.5429 18.0043 11.6282 17.4777 10.8141C17.1048 10.3296 15.3052 10.3739 14.2084 10.4401C13.9009 10.4845 13.528 10.55 13.2647 10.6824C13.0014 10.8148 12.7381 11.0345 12.7381 11.2324C12.7381 11.5183 13.3967 11.4746 13.6376 11.8486C13.9009 12.245 13.9009 13.1028 13.9009 13.807C13.9009 14.6211 13.7689 15.7 13.4403 15.7436C12.9354 15.7655 12.6503 15.2591 12.387 14.8852C11.8604 14.1591 11.3338 13.2563 10.9385 12.376C10.7411 11.9141 10.6309 11.4077 10.3458 11.2098C9.90698 10.9014 9.11704 10.8796 8.34888 10.9014C7.64672 10.9232 6.63701 10.8352 6.4397 11.2535C6.28593 11.7155 6.61524 12.1556 6.79078 12.5303C7.69025 14.4887 8.65572 16.2056 9.84097 17.8337C10.9385 19.352 11.9692 20.5626 13.9879 21.2006C14.5588 21.3767 17.0599 21.883 17.5648 21.2006C17.7403 20.9365 17.6968 20.3422 17.7845 19.902C17.8723 19.4619 17.9818 19.0218 18.3989 18.9999C18.75 18.9781 18.9473 19.2859 19.1671 19.5063C19.4086 19.7485 19.6059 19.9464 19.7815 20.1668C20.1986 20.5851 20.6374 21.157 21.164 21.3774C21.888 21.6858 23.0072 21.5978 24.0605 21.5534C24.9164 21.5316 25.5308 21.3556 25.5968 20.8492C25.641 20.4527 25.2015 19.8809 24.9382 19.5506C24.2795 18.7366 23.9727 18.4943 23.2263 17.7457C22.897 17.4154 22.4799 17.0633 22.4799 16.6676C22.4581 16.4253 22.6554 16.2056 22.831 15.9633C23.5991 14.819 24.3673 14.0049 25.0695 12.8162C25.2668 12.4641 25.7281 11.65 25.5526 11.2535C25.3553 10.8134 24.2578 10.9451 23.5774 10.9451C22.6997 10.9451 21.5587 10.8789 21.3389 11.0549C20.9218 11.3408 20.7463 11.8035 20.549 12.2436C20.1101 13.2563 19.5175 14.2901 18.9031 15.0605C18.6833 15.3246 18.2669 15.8746 18.0254 15.7866L18.0261 15.7873Z" fill="white"/>
</svg>
