<svg width="32" height="32" viewBox="0 0 32 32" fill="none" xmlns="http://www.w3.org/2000/svg">
<rect width="32" height="32" rx="16" fill="#FF0000"/>
<path d="M25.9407 11.0809C25.6979 10.1837 24.9971 9.48279 24.0999 9.24001C22.4858 8.7998 15.9894 8.7998 15.9894 8.7998C15.9894 8.7998 9.49302 8.81314 7.87893 9.25335C6.98172 9.49613 6.28085 10.197 6.03807 11.0942C5.54984 13.9622 5.36042 18.3323 6.05141 21.0856C6.29419 21.9828 6.99506 22.6836 7.89227 22.9264C9.50636 23.3666 16.0027 23.3666 16.0027 23.3666C16.0027 23.3666 22.4991 23.3666 24.1132 22.9264C25.0104 22.6836 25.7113 21.9828 25.9541 21.0856C26.469 18.2135 26.6277 13.8462 25.9407 11.0809Z" fill="white"/>
<path d="M13.9219 19.2048L19.3111 16.0834L13.9219 12.9619V19.2048Z" fill="#FF0000"/>
</svg>
